<?xml version="1.0" encoding="UTF-8" standalone="no"?>
<!-- Created with Inkscape (http://www.inkscape.org/) -->

<svg
   xmlns:dc="http://purl.org/dc/elements/1.1/"
   xmlns:cc="http://creativecommons.org/ns#"
   xmlns:rdf="http://www.w3.org/1999/02/22-rdf-syntax-ns#"
   xmlns:svg="http://www.w3.org/2000/svg"
   xmlns="http://www.w3.org/2000/svg"
   xmlns:sodipodi="http://sodipodi.sourceforge.net/DTD/sodipodi-0.dtd"
   xmlns:inkscape="http://www.inkscape.org/namespaces/inkscape"
   id="svg3867"
   version="1.1"
   inkscape:version="0.91 r13725"
   width="1000"
   height="1000"
   sodipodi:docname="KraftyNook_SuperMarioBros_Goomba~.svg">
  <metadata
     id="metadata3873">
    <rdf:RDF>
      <cc:Work
         rdf:about="">
        <dc:format>image/svg+xml</dc:format>
        <dc:type
           rdf:resource="http://purl.org/dc/dcmitype/StillImage" />
        <dc:title></dc:title>
      </cc:Work>
    </rdf:RDF>
  </metadata>
  <defs
     id="defs3871" />
  <sodipodi:namedview
     pagecolor="#ffffff"
     bordercolor="#666666"
     borderopacity="1"
     objecttolerance="10"
     gridtolerance="10"
     guidetolerance="10"
     inkscape:pageopacity="0"
     inkscape:pageshadow="2"
     inkscape:window-width="1280"
     inkscape:window-height="715"
     id="namedview3869"
     showgrid="false"
     inkscape:zoom="0.20084391"
     inkscape:cx="312.7343"
     inkscape:cy="443.74158"
     inkscape:window-x="0"
     inkscape:window-y="0"
     inkscape:window-maximized="1"
     inkscape:current-layer="svg3867" />
  <g
     id="g10123">
    <path
       id="path3907"
       d="m 717.46484,968.2683 c -35.89176,-2.286 -72.50125,-9.6228 -95.91981,-19.2231 -20.66683,-8.4723 -31.12137,-16.3416 -41.01361,-30.87174 l -4.93342,-7.24642 -5.06658,0.76011 c -7.93456,1.19038 -53.86631,0.79874 -66.06658,-0.56331 -34.41202,-3.84181 -63.84673,-9.41099 -88.8481,-16.81046 l -15.99561,-4.7341 -1.57815,2.38766 c -14.19943,21.48313 -43.37628,37.98816 -80.3222,45.43746 -68.40453,13.7922 -165.4023,0.5348 -203.52276,-27.81689 -11.62909,-8.64903 -25.370611,-30.12951 -30.835751,-48.20189 -2.3053,-7.62328 -2.71648,-10.85102 -2.79475,-21.93836 -0.0993,-14.07343 1.63462,-22.09383 7.12891,-32.97478 13.236661,-26.214 42.475071,-47.9876 86.563321,-64.46297 11.34868,-4.2409 37.94972,-12.46915 46.2051,-14.2922 1.36398,-0.30121 0.72795,-0.6802 -2,-1.19175 -31.71544,-5.94735 -61.82808,-19.76552 -86.4311,-39.66175 -12.45438,-10.07174 -17.65019,-15.55095 -24.5761,-25.91655 -19.230871,-28.7817 -27.832081,-61.52287 -24.542991,-93.42475 3.51981,-34.1397 15.95688,-65.15023 49.785171,-124.13417 l 12.07766,-21.05892 3.15383,-16.44108 c 16.1286,-84.07908 48.50701,-158.52827 94.57585,-217.46267 4.10172,-5.2472 7.45767,-9.70264 7.45767,-9.90098 0,-0.6552 -5.31517,-1.70983 -12.96255,-2.57201 -15.68684,-1.76855 -30.67601,1.71739 -47.03312,10.93822 -4.9333,2.781 -9.40489,5.05636 -9.93689,5.05636 -1.40487,0 -7.77568,-20.3857 -9.54932,-30.55647 -5.93102,-34.01099 5.6136,-70.178446 34.76054,-108.899286 3.33039,-4.42433 12.93481,-14.93103 21.34315,-23.348218 l 15.28787,-15.303982 5.79516,0.64197 c 8.79018,0.973749 13.99125,2.277503 22.20292,5.565615 26.90543,10.773455 53.81268,35.872155 76.66319,71.510315 4.19303,6.53953 8.14239,11.817346 8.77636,11.728486 0.63398,-0.0889 7.00269,-2.72922 14.15269,-5.867456 31.28737,-13.73247 62.61023,-20.87949 97,-22.13274 26.46482,-0.96445 47.32483,1.32525 75.6822,8.30726 l 14.6822,3.61497 5.73932,-6.38022 c 35.56371,-39.53516 74.61558,-63.818113 111.82289,-69.532935 17.03142,-2.6159247 43.61492,-0.278405 48.76584,4.288041 5.43259,4.816158 17.74524,19.927404 24.33373,29.864664 18.82959,28.40019 31.54096,62.866616 38.00852,103.058796 1.46712,9.11729 3.81276,41.42707 3.06204,42.17778 -0.18659,0.18659 -5.62648,-1.72793 -12.08865,-4.2545 -6.46216,-2.52657 -15.8576,-5.67736 -20.87874,-7.00177 -10.09717,-2.66329 -31.72902,-6.71399 -32.3797,-6.0633 -0.22798,0.22798 2.25743,4.38992 5.52314,9.24875 23.96302,35.65299 46.17836,80.67092 62.80817,127.27665 3.57063,10.00685 6.95542,17.03523 13.24369,27.5 11.45071,19.05598 35.01503,54.92986 43.71938,66.55758 34.15525,45.62635 57.62477,94.50634 65.05974,135.5 2.66724,14.70616 2.48316,40.79306 -0.37543,53.20499 -6.48155,28.14269 -29.89727,65.71258 -56.97327,91.41206 -22.55524,21.40855 -47.92808,36.4366 -78.96512,46.77016 -21.7142,7.22959 -43.24126,10.75231 -72.12939,11.80336 l -17.33944,0.63087 0.6745,4.49791 c 0.37097,2.47384 1.05182,5.49032 1.51298,6.70328 l 0.83848,2.20537 8.82646,-2.49428 c 7.60885,-2.1502 11.49774,-2.56021 28.19059,-2.97213 21.57968,-0.5325 35.36273,0.56053 53.78197,4.26505 60.72611,12.21339 98.77495,47.07648 108.86099,99.74631 0.86657,4.52527 1.57479,13.4015 1.57399,19.72705 -0.002,14.07358 -2.25922,23.89013 -8.2786,36 -5.65544,11.37768 -20.05408,26.00324 -33.21395,33.73734 -21.6825,12.7428 -49.57967,20.2781 -86.08853,23.2531 -11.12139,0.9063 -35.29196,1.0763 -47,0.3306 z"
       style="fill:#000000" />
    <path
       id="path3905"
       d="M 375.46875 595.8125 L 381.96875 602.4375 C 387.62909 608.21451 388.85629 609.024 391.46875 608.65625 C 393.11875 608.42398 402.06717 606.82488 411.375 605.09375 C 420.68284 603.36262 428.54117 601.70884 428.8125 601.4375 C 429.08383 601.16617 427.44793 600.9375 425.1875 600.9375 C 420.95929 600.9375 385.21575 597.40893 378.96875 596.375 L 375.46875 595.8125 z M 678.03125 599.9375 L 674.75 599.96875 C 672.9406 599.97275 663.03956 600.62874 652.75 601.4375 C 642.46043 602.24625 626.59793 603.22085 617.5 603.59375 C 608.40206 603.96665 600.96875 604.55164 600.96875 604.90625 C 600.96875 605.26085 605.58125 606.9714 611.21875 608.71875 C 616.85625 610.4661 629.11875 615.03079 638.46875 618.84375 L 655.46875 625.78125 L 657.8125 623.09375 C 659.10695 621.63105 664.1788 615.825 669.09375 610.1875 L 678.03125 599.9375 z M 230.46875 746.4375 L 217.46875 750.1875 C 180.78527 760.7087 156.8945 770.75131 136.9375 784.0625 C 120.17589 795.24239 108.82423 808.58006 103.90625 822.9375 C 101.07309 831.20855 100.84242 844.5306 103.375 853.9375 C 106.80272 866.66932 118.63641 886.47059 126.21875 892.15625 C 143.61098 905.19791 184.76859 917.05554 225.96875 920.90625 C 240.79335 922.2918 286.61336 921.41714 298.96875 919.5 C 329.47534 914.76642 351.77353 906.42018 367.5 893.90625 C 373.3608 889.24267 378.98932 883.03904 378.96875 881.25 C 378.96375 880.8008 375.36727 878.72531 371 876.625 C 354.44752 868.66459 335.4749 854.40136 323.5 840.9375 C 303.08107 817.97966 293.96091 793.75654 293.90625 762.3125 L 293.875 749.15625 L 283.65625 747.8125 C 277.75918 747.02835 264.39263 746.4375 251.96875 746.4375 L 230.46875 746.4375 z M 727.34375 771.96875 C 715.6629 772.0377 713.33175 772.5217 701.96875 775.5 C 643.30724 790.87544 602.23532 814.52669 589.25 840.4375 C 583.18195 852.54564 581.66389 867.96022 585.34375 880.4375 C 589.3504 894.02279 601.14443 912.85739 609.25 918.65625 C 628.54254 932.45841 671.19313 943.8873 715.96875 947.25 C 726.6213 948.05 754.41011 947.8436 765.46875 946.875 C 824.97444 941.6633 861.8362 921.09084 869.4375 888.84375 C 873.41932 871.95164 869.28821 848.57861 858.90625 829.09375 C 842.37778 798.07315 807.39891 778.31737 759.46875 772.96875 C 754.51875 772.41637 742.59375 771.97152 732.96875 771.96875 C 730.86449 771.96812 729.01244 771.9589 727.34375 771.96875 z "
       style="fill:#aa0000" />
    <path
       id="path3901"
       d="m 565.44119,890.80475 c 0.35311,-0.35339 -0.15943,-3.27839 -1.13896,-6.5 -2.56004,-8.41979 -2.52275,-30.52995 0.0655,-38.85749 6.59675,-21.22432 20.19713,-38.10644 42.92463,-53.28226 15.7565,-10.52108 32.12673,-18.34283 57.80992,-27.62177 l 4.63748,-1.67545 -1.98216,-9.14419 c -3.01838,-13.92446 -2.42108,-13.15964 -11.43717,-14.64507 -4.3206,-0.71184 -12.08164,-3.08648 -17.24676,-5.27698 -59.11501,-25.07045 -113.33659,-37.62946 -170.60883,-39.51712 -29.46742,-0.97122 -60.45466,2.12377 -86.7562,8.66516 -6.73409,1.67482 -22.18901,6.40946 -34.34427,10.52141 -12.15526,4.11195 -22.77721,7.47627 -23.60433,7.47627 -3.25211,0 -8.78647,26.45011 -8.78798,42 -0.004,41.93758 24.35802,75.16779 71.99278,98.19903 27.45858,13.27613 74.51573,24.74244 118,28.7528 6.325,0.58332 13.3,1.22935 15.5,1.4356 6.53074,0.61228 44.27945,0.1675 44.97635,-0.52994 z"
       style="fill:#ffdd55" />
    <path
       id="path3899"
       d="M 475.3125 102.46875 C 462.28096 102.57515 449.07734 103.18715 442.15625 104.28125 C 417.89021 108.11727 395.67393 114.81603 373.71875 124.875 L 367 127.96875 L 369.625 133.6875 C 380.04658 156.46345 393.57935 193.97925 401.28125 221.375 C 404.52418 232.91012 404.67992 233.17471 405.3125 229.21875 C 406.19112 223.72421 410.57308 219.9375 416.09375 219.9375 C 425.68338 219.9375 427.21736 223.58577 425.3125 241.9375 C 423.62619 258.18379 419.53343 285.17867 416.9375 297.1875 C 415.30831 304.72415 415.21449 307.18693 416.125 315.1875 C 417.61725 328.29966 416.59957 372.65992 414.5 385.9375 C 402.72284 460.4157 366.3613 498.85783 307.46875 499.0625 C 287.45029 499.1321 272.4016 494.2958 258.6875 483.4375 C 235.78951 465.30772 222.87132 425.67562 226.90625 385.9375 C 229.85939 360.33279 238.04376 347.84271 248.5 324.9375 C 270.23621 277.20943 295.04901 247.10769 323.59375 233.75 L 330.3125 230.59375 L 320.84375 221.46875 C 309.24468 210.31302 297.21518 200.85107 285.96875 194 L 277.46875 188.8125 L 274.09375 192.625 C 268.67626 198.78298 258.67773 211.78413 252.3125 220.9375 C 213.83296 276.27217 186.08443 345.26933 173.5625 416.65625 L 171.09375 430.6875 L 156.6875 456.0625 C 139.37111 486.5466 132.62748 499.32319 126.03125 514.21875 C 105.58543 560.38942 104.25273 596.56967 121.71875 631.4375 C 128.64877 645.27205 134.92732 653.83365 143.875 661.65625 C 182.50581 695.42963 232.75114 709.32604 287.5625 701.375 C 302.359 699.2286 318.9418 694.91322 340.96875 687.46875 C 384.86162 672.63421 414.26355 667.6659 458.46875 667.65625 C 488.6384 667.64925 514.89578 670.23049 544.21875 676.03125 C 574.30221 681.98245 616.15285 694.76421 640.46875 705.4375 C 653.83993 711.30669 661.561 713.37923 675.46875 714.84375 C 688.65146 716.23192 713.6307 716.05092 727.15625 714.46875 C 782.48284 707.99685 826.14885 683.84623 857.75 642.25 C 870.62802 625.2988 882.31604 603.54487 886.125 589.4375 C 889.19205 578.07797 889.14899 554.74659 886.0625 540.4375 C 878.25211 504.22806 857.41463 461.38891 828.875 422.9375 C 812.95376 401.48683 781.03743 351.9727 773.5625 337.125 C 771.5353 333.09832 767.9145 324.32332 765.53125 317.625 C 746.59003 264.38928 721.88791 217.27617 692.6875 178.65625 L 686.78125 170.84375 L 679.625 171.4375 C 631.84782 175.4102 597.24071 188.27347 561.53125 215.3125 C 554.87616 220.3517 553.91253 221.41004 555.53125 222 C 556.59189 222.38656 561.51875 224.17342 566.46875 225.9375 C 608.17469 240.80068 645.76799 271.99345 668.65625 310.75 C 679.92421 329.82996 687.55766 348.55965 693.625 371.9375 C 696.86359 384.41595 697.0745 386.15637 696.46875 394.9375 C 694.53066 423.03293 685.33522 449.72573 671 468.75 C 653.96881 491.35209 630.23886 503.15388 598.96875 504.59375 C 583.84545 505.29012 569.88731 503.63812 548.28125 498.5625 C 531.00988 494.50517 522.65613 491.56025 511.96875 485.8125 C 481.93596 469.66064 462.76385 442.29752 454.8125 404.25 C 452.78451 394.54597 452.53924 390.49512 452.46875 364.4375 C 452.42565 348.4875 452.02074 330.70733 451.5625 324.90625 C 451.00558 317.85591 451.13128 310.89319 451.9375 303.90625 C 453.03696 294.37789 452.95393 292.68593 451.125 284.9375 C 447.92695 271.38867 446.6208 256.84674 447.3125 242.4375 C 448.45383 218.66158 451.30359 211.9375 460.1875 211.9375 C 463.64641 211.9375 464.86022 212.54475 467.96875 215.8125 L 471.65625 219.6875 L 478.5 206.5625 C 494.45289 175.96927 514.28396 143.294 529.78125 122.0625 C 535.56454 114.13931 537.72002 110.42851 536.875 109.90625 C 535.45249 109.0271 518.95603 105.56333 507.46875 103.75 C 501.21893 102.76344 488.34404 102.36235 475.3125 102.46875 z M 262.84375 498.3125 C 263.88806 498.345 264.95178 498.50781 265.96875 498.8125 C 274.45491 501.35501 294.76392 517.56548 322.0625 543.5625 C 347.95187 568.21749 352.087 571.61506 356.96875 572.21875 C 359.44375 572.52482 370.30691 573.93067 381.125 575.34375 C 429.46237 581.65767 477.47247 584.35214 540.96875 584.3125 C 596.72478 584.2777 641.26385 582.19603 686.78125 577.5 L 699.125 576.21875 L 719.28125 556.28125 C 742.9732 532.8463 749.19604 527.36929 761.96875 518.75 C 777.50733 508.26424 788.43663 506.35766 797.1875 512.5625 C 808.19061 520.36432 812.91302 540.87422 812.96875 580.9375 C 812.99615 600.66259 814.86649 618.38096 817.90625 627.78125 C 819.03367 631.26776 819.96875 636.69258 819.96875 639.84375 C 819.96875 666.07868 795.17282 680.48833 756.28125 676.875 C 737.98656 675.17529 705.86056 667.211 679.96875 657.9375 C 673.64375 655.67211 657.66875 649.3763 644.46875 643.96875 C 606.93153 628.59114 592.16798 623.91534 568.96875 619.96875 C 550.30958 616.79451 535.05652 615.69085 507.46875 615.5625 C 482.73948 615.44744 480.43833 615.59553 460.21875 618.71875 C 400.04875 628.01286 350.96136 639.25924 317.46875 651.4375 C 298.53372 658.32247 280.87034 659.24896 268.625 654 C 262.88415 651.53918 256.40043 645.09768 253.625 639.09375 C 249.08598 629.27476 251.95077 599.86171 258.09375 593.3125 L 260.125 591.15625 L 256.125 572.8125 C 247.18548 531.73063 245.7156 512.34698 250.96875 504.625 C 253.75894 500.5235 258.31841 498.17167 262.84375 498.3125 z "
       style="fill:#d38d5f" />
    <path
       id="path3895"
       d="M 538.5625 238.09375 C 538.26293 238.08397 538.01889 238.09525 537.8125 238.125 C 536.43742 238.32323 532.63667 241.79028 528.1875 246.9375 C 519.97231 256.4416 507.51103 272.85318 508.09375 273.375 C 508.30207 273.56155 510.49375 274.72373 512.96875 275.96875 C 524.82069 281.93074 536.81932 292.68711 542.625 302.59375 C 546.54263 309.27868 549.58208 318.33948 550.9375 327.28125 C 554.03386 347.70801 544.75899 374.21635 529 390 C 520.92388 398.08877 515.51477 400.4375 504.96875 400.4375 C 494.73003 400.4375 489.23538 398.14608 478.71875 389.46875 C 472.01634 383.93855 471.96558 383.93505 471.96875 386.6875 C 471.97475 392.12696 475.13524 407.5941 478 416.1875 C 486.41784 441.4384 501.49004 459.10216 524.46875 470.6875 C 535.41074 476.20419 557.1979 481.80981 581.46875 485.34375 C 588.38743 486.35114 608.6797 484.99326 616.375 483 C 643.55231 475.96045 661.29136 457.34173 671.25 425.4375 C 674.50939 414.99545 676.96875 400.39855 676.96875 391.4375 C 676.96875 378.96498 668.62437 352.32567 658.1875 331.4375 C 639.61068 294.2582 606.96528 263.54627 568.96875 247.5 C 557.60767 242.70212 543.05606 238.24046 538.5625 238.09375 z M 342.09375 247.40625 C 339.89135 247.37072 336.74156 248.86599 330.46875 251.84375 C 308.97036 262.04922 290.42393 283.95747 272.21875 320.71875 C 247.44351 370.74677 246.055 374.88197 246 398.9375 C 245.9013 442.09123 262.43431 471.55908 290.59375 478.375 C 298.63882 480.32229 316.29401 480.32259 325.75 478.375 C 359.30368 471.46275 381.08187 445.64666 391.9375 399.9375 C 394.91095 387.41737 394.8584 387.29372 388.71875 391.96875 C 364.57293 410.35455 336.89818 405.03311 324.5 379.59375 C 319.13774 368.59113 317.64781 360.06834 317.625 339.9375 C 317.6071 324.16891 317.9227 320.30528 319.71875 313.78125 C 323.57022 299.79106 330.37159 289.72998 339.5625 284.34375 C 344.73493 281.31251 357.16802 278.58229 362.21875 279.375 C 364.28125 279.69871 365.96875 279.56652 365.96875 279.0625 C 365.96875 277.79211 353.19887 258.61761 348.03125 252.125 C 345.54877 249.00601 344.29615 247.44178 342.09375 247.40625 z M 269.875 525.9375 C 269.40469 525.9375 269.21744 527.175 269.46875 528.6875 C 269.72006 530.2 271.06818 538.37234 272.46875 546.84375 C 275.09998 562.75883 278.30389 578.0978 286.625 614.78125 L 291.46875 636.125 L 295.875 635.53125 C 298.2921 635.20297 309.0921 632.05495 319.875 628.53125 C 330.65791 625.00755 344.98125 620.66204 351.71875 618.875 C 358.45625 617.08797 363.96875 615.31911 363.96875 614.9375 C 363.96875 614.02589 315.9213 566.70824 299.9375 551.875 C 284.77597 537.80484 271.03315 525.9375 269.875 525.9375 z M 783.59375 530.875 C 781.92866 530.93219 779.358 532.46834 774.75 535.5 C 764.31161 542.36753 749.13284 555.96971 728.9375 576.5625 C 707.99923 597.91282 676.96875 632.27097 676.96875 634.09375 C 676.96875 635.02234 711.14635 646.2179 723.625 649.375 C 756.80348 657.76917 772.80786 659.37806 782.8125 655.375 L 786.6875 653.84375 L 787.84375 642.15625 C 790.55527 614.56587 791.20043 603.09055 791.28125 580.4375 C 791.37035 555.4613 790.25403 543.45823 787.09375 535.0625 C 786.02597 532.2258 785.25884 530.81781 783.59375 530.875 z "
       style="fill:#ffffff" />
    <path
       id="path3883"
       d="M 690.3125 37.0625 C 678.92732 37.186019 668.82957 38.970982 658.65625 42.625 C 609.46512 60.29334 558.49722 116.20161 508.96875 206.875 C 501.65919 220.25683 485.64958 252.82381 482.625 260.4375 C 481.1002 264.27582 481.09767 264.35508 482.75 261.96875 C 483.69707 260.60099 488.31553 254.30099 493.03125 247.96875 C 536.99127 188.93961 596.75356 153.5924 665.46875 145.96875 C 687.88194 143.4821 723.19942 145.21717 746.84375 149.96875 C 752.54553 151.11458 757.4663 151.7837 757.78125 151.46875 C 758.62783 150.62218 755.44518 135.08233 751.5 120.6875 C 743.14003 90.184434 728.87433 62.20754 711.5625 42.4375 L 707.1875 37.4375 L 695.28125 37.09375 C 693.59866 37.044074 691.93895 37.044854 690.3125 37.0625 z M 251.46875 41.8125 L 242.15625 51.53125 C 219.62845 75.04626 204.14896 101.24239 198.34375 125.65625 C 196.84529 131.95803 195.83929 152.14434 196.96875 153.25 C 197.24375 153.51921 200.84375 152.86241 204.96875 151.78125 C 216.15538 148.84926 234.18643 148.25364 247.0625 150.40625 C 272.05337 154.58418 298.0537 167.37481 323.875 188.1875 C 339.99491 201.18059 362.97476 226.10152 376.03125 244.75 C 378.45768 248.21564 380.56077 250.66144 380.71875 250.1875 C 380.87674 249.71355 378.10768 239.2167 374.5625 226.875 C 357.66125 168.0372 337.18331 122.68431 312.96875 90.4375 C 295.47501 67.14089 275.12896 50.07139 257.46875 43.90625 L 251.46875 41.8125 z "
       style="fill:#552200" />
  </g>
  <g
     transform="matrix(1.3901343,0,0,1.3901343,-12.866864,-235.52405)"
     id="layer1"
     inkscape:label="Layer 1"
     style="fill:#ffffff">
    <path
       sodipodi:nodetypes="cccccccccccccccccccccccccccccccccccccccccccccccccccccccccccccccccccccccccccccccccccccccccccccccccccccccccccccccccccccccccccccccccccccccccccccccccccccccccccc"
       inkscape:connector-curvature="0"
       id="path3014"
       d="m 307.1875,905.71875 c -14.71172,3.2326 -22.31955,18.30825 -29,30.40625 -4.49318,7.45262 -6.22013,17.19447 -14.625,21.25 -17.76798,12.53713 -38.12863,22.31396 -59.3125,27.46875 -0.3142,-4.64999 6.61897,-9.94743 2.8125,-14.34375 -4.61504,-3.16743 -8.625,3.63785 -12.08529,5.76466 -4.75886,3.82132 -11.03967,10.61276 -17.60221,7.95409 -1.45825,-3.41545 3.35251,-6.22842 4.96875,-8.75 6.89968,-7.22275 16.12499,-11.73841 25.71875,-14.0625 3.45541,-2.64846 -0.33029,-8.46633 -4.34375,-6.28125 -25.81695,3.40362 -48.32781,18.63648 -72.625,26.9375 -2.26497,-1.0872 -0.0214,-5.3822 0.3125,-7.3125 0.69983,-4.83164 5.53748,-9.1608 4.46875,-14.0625 -3.21407,-5.06602 -8.56513,0.90827 -12.25,2.15625 -3.12208,1.37389 -6.62086,2.61142 -10.0625,1.875 4.70771,-1.97528 6.88597,-9.9423 1.125,-11.9375 -6.01239,-2.32388 -13.33293,3.59621 -11.71875,10 -14.010472,8.59332 -28.639706,19.44401 -45.65625,19.84375 -3.977455,-0.2357 -9.543485,-3.35825 -10.75,-5.78125 10.041957,-1.90604 22.179135,-5.00562 27.21875,-14.65625 2.262241,-5.309 -4.47016,-8.56583 -8.90625,-7.375 -8.691717,1.27006 -17.056005,5.16909 -24.21875,10.21875 4.806918,-8.62423 8.067377,-18.4849 16.618819,-24.18222 6.854974,-7.48036 16.669092,-12.99465 21.099931,-22.19278 1.624579,-3.59966 0.229384,-9.53363 -4.6875,-8.65625 -13.149714,2.38383 -19.00283,16.15481 -25.720468,26.14628 -5.128464,10.90567 -16.46923,16.78085 -25.531196,24.10028 -6.453101,5.05244 -14.2669788,8.3473 -20.842086,12.97219 -2.55369492,3.45819 2.527214,7.43068 5.5432678,4.69451 C 17.099482,972.73738 26.522343,966.52557 35.3125,959.625 c -4.139619,8.90878 -9.77205,17.12347 -14.78125,25.34375 -0.902765,4.72442 6.033614,5.59731 7.647675,1.53819 3.313282,-1.50474 6.918628,-11.09571 10.172939,-6.97828 6.622204,7.95413 17.740297,13.23821 27.987462,8.98787 14.523745,-3.9432 27.587521,-12.09399 40.379424,-19.51653 5.38263,4.27985 13.55118,2.55565 18.9375,0.78125 -1.63961,5.42026 -5.57267,13.99062 0.125,18.25 8.03523,3.02658 16.46537,-2.8487 23.90625,-5.40625 9.44559,-4.22777 18.6742,-9.05396 28.3125,-12.75 -5.06354,4.26202 -11.68828,12.72609 -5.90625,19.09375 6.41129,6.45541 16.30824,1.32417 22.3125,-3.125 2.86844,-2.86561 2.3499,-0.93577 2.625,1.78125 1.55762,6.42871 10.26403,4.35012 14.75,2.875 18.181,-5.68964 35.68488,-13.61512 51.40625,-24.1875 -3.09137,4.68634 -9.28262,6.85923 -12.84375,11.53125 -9.49825,10.26876 -17.39725,22.45595 -22.03125,35.59375 -1.55256,4.143 3.01827,8.5437 6.84375,5.5 14.08991,-8.5066 21.61969,-24.14295 28.90625,-38.3125 6.12784,8.37994 18.00317,4.00086 25.48818,0.0528 6.54492,-3.31279 13.42004,-7.93069 19.07432,-11.58404 -2.73396,5.77843 -9.05798,13.70543 -4.40625,19.96875 6.59085,4.87066 15.37199,-0.386 21.90625,-2.84375 14.65417,-6.06584 30.86286,-12.91659 44.4375,-19.21875 -2.47395,6.7757 -9.52748,14.05773 -6.40625,21.6875 4.04945,5.50959 12.09614,1.29037 16.6875,-1.4375 3.22197,-1.83266 6.30211,-3.85806 9.28125,-6.03125 -11.26251,22.08054 -23.40224,43.88534 -34.15625,66.12504 -0.42962,4.5933 6.93936,5.0525 7.4375,0.4687 18.20659,-34.6902 46.69445,-65.69557 83.46875,-80.46874 -2.13196,4.89827 -6.4945,9.57251 -6.71875,15 0.92885,4.27254 6.08451,2.99085 8.46875,0.75 12.46683,-6.41835 24.09662,-14.58749 36.90625,-20.03125 3.79065,-0.22644 -0.4504,4.1045 -1.6875,4.875 -4.66637,5.09457 -11.93334,9.64567 -12.90625,16.90625 0.29815,6.46911 8.91037,5.16179 13.0625,3.875 14.87586,-4.41255 29.286,-12.8292 43.125,-18.21875 -4.73844,4.60775 -10.95448,13.33586 -5.5625,19.53125 6.5432,4.49225 15.48917,1.10289 21.96875,-1.9375 4.07073,-1.64561 7.51574,-6.11909 10.59375,-7.84375 11.21459,6.73753 25.03522,1.91412 34.96875,-4.9375 3.3901,-2.00278 7.21329,-4.41192 10.46875,-5.90625 -5.58554,4.91117 -10.65751,15.68604 -3.53125,21.375 7.61339,3.73906 16.78005,-0.96777 23.40625,-5 3.24806,-1.2653 5.36119,-7.06454 9,-4.125 16.42108,5.23772 32.7501,-4.80599 45.02436,-14.84232 4.13191,-3.182 8.29346,-6.35169 12.22564,-9.81393 -5.31916,10.26858 -11.98388,19.90958 -17.03125,30.125 -0.49864,4.09834 5.59569,5.53495 7.0625,1.5625 2.64026,-4.09774 5.67399,-8.46014 9.34375,-11.3125 6.02954,8.65389 16.67474,15.7423 27.59375,12.21875 9.74307,-3.03334 18.52872,-9.03529 27.5,-13.75 3.03709,-3.21437 -1.87192,-7.93085 -5.14998,-5.15782 -10.47537,4.04906 -19.82916,13.90285 -31.66252,12.25157 -4.52303,-1.08295 -7.92613,-4.49532 -10.90625,-7.875 10.54297,0.9282 25.01422,-1.47982 28.09375,-13.25 1.64375,-5.33733 -4.15031,-9.00596 -8.90625,-7.34375 -8.09207,1.79359 -15.53825,6.07461 -22.28125,10.5625 6.46033,-10.0854 10.72311,-22.02292 20.76517,-29.19847 5.39939,-6.31867 14.53688,-10.60261 16.73483,-19.05153 1.34402,-5.33373 -5.26935,-7.1783 -9,-5.03125 -13.99117,6.08419 -15.58213,24.59105 -27.9645,32.73393 -11.22813,9.7133 -23.10104,18.94227 -35.69175,26.64107 -7.06027,3.19202 -15.67731,6.57511 -23.34375,3.71875 4.61718,-4.07491 5.04961,-14.59461 -2.65625,-15.15625 -1.65521,0.0963 -1.70426,-3.97896 -4.5,-3.5 -17.32807,-1.16302 -31.86976,9.46786 -46.15625,17.375 -5.75944,3.13473 -14.28972,4.19517 -19.5625,0.40625 2.58714,-4.27564 4.60926,-12.7884 -1.71875,-14.71875 -2.1181,0.17588 -2.70945,-0.71527 -3.90625,-2.25 -4.5378,-1.78758 -9.71491,1.45843 -14.36936,1.98785 -19.95433,5.19458 -37.49654,16.70318 -56.94314,23.13715 -3.10773,0.2978 5.08662,-5.45088 5.83601,-7.23343 4.00473,-4.01439 10.27987,-11.11952 5.66399,-16.82907 -5.94814,-4.4387 -13.57815,0.87543 -19.375,3.21875 -7.09549,3.53962 -13.97279,7.47982 -20.84375,11.4375 3.43684,-3.71196 6.33395,-12.64463 -0.9375,-13.65625 -9.25883,0.56619 -17.66616,6.18686 -25.71875,10.4375 -13.40765,8.20068 -25.72044,18.23984 -36.71875,29.4375 5.00475,-10.40073 11.39111,-20.42751 15.75,-31 -0.1361,-4.61402 -6.69569,-4.37374 -8.5,-0.75 -7.7552,6.35493 -15.92691,13.37473 -25.25,16.84375 2.35111,-9.9311 8.98736,-18.09989 14.6875,-26.1875 0.87541,-4.38085 -5.28925,-5.86264 -7.78329,-2.64076 -20.72121,10.75501 -42.01504,21.30789 -64.46671,27.60951 -4.29363,0.4375 -0.56402,-5.5534 -0.0312,-7.40625 4.02649,-7.4485 7.49737,-15.69554 14.21875,-21.15625 14.07466,-2.25693 28.94369,-4.0771 41.65625,-10.59375 3.22227,-2.96923 -1.57748,-8.05825 -5,-5.4375 -8.7947,3.12637 -17.9193,5.39223 -27.125,7.1875 7.91717,-7.49231 17.67132,-15.44826 19.5625,-26.75 0.40603,-5.58731 -6.88301,-6.24926 -9.9375,-2.9375 -10.26201,8.83455 -16.82263,21.12247 -24.90625,31.875 -5.39294,1.36656 -11.77239,-1.04688 -16.75,1.46875 -2.9998,3.19893 1.15784,7.81189 5,6.3125 5.248,-0.65652 5.79678,0.33344 1.3125,3.09375 -11.73649,7.42951 -23.00594,17.42722 -37,19.78125 -5.50316,0.80891 -7.70271,-7.08217 -3.90836,-10.46453 2.82449,-6.89552 6.48518,-13.10103 12.76746,-17.33951 10.53865,-10.22531 21.42681,-21.25363 28.7659,-34.10221 2.70467,-4.39887 1.89837,-11.6805 -4.8125,-10.625 z m -2.25,8.4375 c -4.78801,9.13942 -13.17939,16.15209 -19.65625,24.15625 4.76485,-9.24782 9.92958,-19.5758 19.65625,-24.15625 z m -19.65625,24.1875 c -0.0939,0.1896 -0.072,-0.0374 0,0 z m 427.625,23.34375 c -3.33484,4.57409 -9.44699,6.12331 -14.875,6.28125 4.65588,-2.74903 9.62169,-5.13891 14.875,-6.28125 z m -648.0625,0.59375 c -5.208909,4.12625 -11.763358,6.37175 -18.1875,7.34375 5.248273,-3.64473 12.589429,-6.96829 18.1875,-7.34375 z m 556.28125,2.1875 c -2.06625,3.18155 -2.356,7.55272 -0.5,10.90625 -5.66049,4.69743 -12.87332,10.38816 -20.65625,9.21875 -2.13845,-4.41087 3.80988,-8.44302 6.3125,-11.1875 4.30874,-3.77174 9.04266,-7.54355 14.84375,-8.9375 z m -74,0.625 c -1.78715,3.32412 -0.75715,7.6505 0.875,10.46875 -5.18101,5.62811 -13.3514,10.43059 -21.0625,9 0.96405,-6.98696 8.09857,-11.95726 13.40625,-15.9375 2.08156,-1.26782 4.87872,-3.05281 6.78125,-3.53125 z M 253.1875,986.0625 c -4.06513,7.33049 -7.93106,14.7574 -14,20.6875 3.45475,-7.87939 8.80986,-14.65723 14.25,-21.1875 z"
       style="color:#000000;font-style:normal;font-variant:normal;font-weight:normal;font-stretch:normal;font-size:medium;line-height:normal;font-family:Sans;-inkscape-font-specification:Sans;text-indent:0;text-align:start;text-decoration:none;text-decoration-line:none;letter-spacing:normal;word-spacing:normal;text-transform:none;direction:ltr;block-progression:tb;writing-mode:lr-tb;baseline-shift:baseline;text-anchor:start;display:inline;overflow:visible;visibility:visible;fill:#ffffff;fill-opacity:1;stroke:none;stroke-width:4;marker:none;enable-background:accumulate" />
  </g>
</svg>
