<?xml version="1.0" encoding="UTF-8" standalone="no"?>
<!-- Created with Inkscape (http://www.inkscape.org/) -->

<svg
   xmlns:dc="http://purl.org/dc/elements/1.1/"
   xmlns:cc="http://creativecommons.org/ns#"
   xmlns:rdf="http://www.w3.org/1999/02/22-rdf-syntax-ns#"
   xmlns:svg="http://www.w3.org/2000/svg"
   xmlns="http://www.w3.org/2000/svg"
   xmlns:sodipodi="http://sodipodi.sourceforge.net/DTD/sodipodi-0.dtd"
   xmlns:inkscape="http://www.inkscape.org/namespaces/inkscape"
   id="svg3755"
   version="1.1"
   inkscape:version="0.91 r13725"
   width="832"
   height="1000"
   sodipodi:docname="KraftyNook_SuperMarioBros_Koopa~.svg">
  <metadata
     id="metadata3761">
    <rdf:RDF>
      <cc:Work
         rdf:about="">
        <dc:format>image/svg+xml</dc:format>
        <dc:type
           rdf:resource="http://purl.org/dc/dcmitype/StillImage" />
        <dc:title></dc:title>
      </cc:Work>
    </rdf:RDF>
  </metadata>
  <defs
     id="defs3759">
    <inkscape:path-effect
       effect="spiro"
       id="path-effect3826"
       is_visible="true" />
  </defs>
  <sodipodi:namedview
     pagecolor="#ffffff"
     bordercolor="#666666"
     borderopacity="1"
     objecttolerance="10"
     gridtolerance="10"
     guidetolerance="10"
     inkscape:pageopacity="0"
     inkscape:pageshadow="2"
     inkscape:window-width="1280"
     inkscape:window-height="715"
     id="namedview3757"
     showgrid="false"
     inkscape:zoom="0.20673975"
     inkscape:cx="249.0894"
     inkscape:cy="517.52476"
     inkscape:window-x="0"
     inkscape:window-y="0"
     inkscape:window-maximized="1"
     inkscape:current-layer="svg3755" />
  <g
     id="g10309">
    <path
       id="path3820"
       d="M 281.5625,11.21875 C 276.04195,11.319394 270.50771,12.175898 265.25,13.8125 250.75465,18.324564 232.53551,33.248963 221.0625,50 206.42543,71.370696 194.24282,104.56285 190,134.5625 l -1.3125,9.125 -8.0625,0.5625 C 148.46079,146.53154 120.59241,161.08748 92.25,190.375 76.7566,206.38506 64.97586,224.94675 56.03125,247.46875 31.23891,309.89441 37.40283,366.84794 74.25,416.125 c 13.77543,18.42238 39.4601,40.86891 64.96875,56.78125 10.43025,6.5064 39.704,22.0625 41.53125,22.0625 0.54292,0 1.80772,-1.9125 2.8125,-4.25 1.00479,-2.3375 3.89,-7.96179 6.40625,-12.5 3.3732,-6.08376 4.95653,-8.09734 6.0625,-7.625 0.825,0.35235 7.26471,2.60933 14.3125,5.03125 28.60182,9.82881 64.74055,16.2745 91.46875,16.3125 l 7.25,0.0312 -0.75,4.25 c -1.31756,7.35033 -0.55071,20.79973 1.5625,27.5 1.92451,6.10196 1.92974,6.36427 0.15625,12.0625 -1.67233,5.37323 -3.63732,16.85494 -4.25,25.03125 -0.2455,3.27612 -0.45485,3.44704 -7.75,5.625 -10.08399,3.01057 -14.30951,4.94549 -22,10.0625 -16.48598,10.96926 -25.25902,26.27977 -26.59375,46.375 -0.31298,4.71206 -0.17169,11.16526 0.34375,14.3125 0.9145,5.58373 0.87768,5.8379 -2.5,10.5 -1.90381,2.62776 -4.85973,7.70625 -6.5625,11.28125 -5.97708,12.54901 -4.51432,32.0123 3.21875,42.6875 1.91115,2.63826 5.00462,5.0891 8.71875,6.90625 5.10071,2.49554 7.08892,2.84255 17.8125,3.21875 l 12.0625,0.4375 4.8125,3.8125 4.8125,3.8125 -4.3125,2.1875 c -18.66319,9.40855 -31.79242,25.35687 -40.25,48.90625 -10.51239,29.27079 -5.80752,61.3458 12.21875,83.5625 l 4.90625,6.03125 -1.875,5.46875 c -3.99631,11.6994 -3.01582,23.7772 2.71875,33.5625 11.36849,19.39886 45.85585,32.58644 91.46875,34.9375 15.81266,0.81505 15.65052,0.74288 16.46875,5.1875 1.76263,9.57469 7.02988,17.37591 16.09375,23.84375 7.56335,5.3971 13.94806,8.38225 28.65625,13.375 19.02577,6.4583 40.56082,11.13005 59.78125,12.96875 22.33023,2.1363 47.13426,0.86705 68.8125,-3.53125 11.43426,-2.3199 32.15229,-8.75715 38.125,-11.84375 1.74323,-0.9008 6.77713,-1.3408 15.5625,-1.375 39.54633,-0.15382 62.61439,-17.2802 64.1875,-47.65625 0.25635,-4.95 1.31508,-12.6 2.34375,-17 4.41242,-18.87367 5.0607,-43.03864 1.59375,-59.09375 -1.26826,-5.87318 -4.78446,-16.65285 -8.0625,-24.59375 -0.52428,-1.27003 2.2552,-0.50669 11.625,3.1875 23.55021,9.28503 38.89681,12.89283 58.40625,13.6875 20.73858,0.84474 34.38969,-1.99971 46.1875,-9.625 7.28661,-4.70956 10.71875,-9.88449 10.71875,-16.125 0,-6.08278 -2.49253,-9.61407 -8.8125,-12.4375 -6.87118,-3.06968 -47.86031,-33.75839 -50.25,-37.625 -0.34547,-0.55896 0.71761,-3.59462 2.375,-6.71875 6.28281,-11.84291 8.18438,-26.62711 4.8125,-37.59375 -1.50317,-4.88889 -1.49545,-4.9365 1.3125,-8.5 6.28008,-7.96989 16.40931,-24.53203 22.4375,-36.6875 13.09128,-26.39773 20.52333,-50.9304 23.6875,-78.28125 1.76108,-15.22256 0.72938,-46.49672 -2,-61.09375 -8.83553,-47.25341 -30.49765,-87.50013 -66.53125,-123.5625 -23.81659,-23.83561 -49.13379,-40.13511 -79.28125,-51.0625 -20.67133,-7.49263 -47.33714,-12.3543 -67.875,-12.375 l -8.15625,0 1.875,-7.25 c 3.24124,-12.57505 4.20144,-25.67374 3.625,-48.6875 -0.44842,-17.90265 -0.95085,-23.51653 -3.03125,-33.0625 -7.95678,-36.50978 -24.8384,-62.5204 -52.375,-80.75 l -8.6875,-5.75 -2.625,-10.5 c -3.38752,-13.49005 -8.16869,-27.79345 -13.6875,-41 C 462.43123,70.531877 421.95434,32.885674 378.9375,24.9375 c -3.51566,-0.649585 -10.45625,-3.164948 -15.40625,-5.59375 -4.95,-2.428803 -11.475,-4.885368 -14.5,-5.4375 -9.16036,-1.671975 -18.67113,0.556419 -26.46875,6.15625 l -4.375,3.125 -3.0625,-2.15625 c -9.29147,-6.61612 -21.41729,-10.033917 -33.5625,-9.8125 z"
       style="fill:#000000" />
    <path
       id="path3818"
       d="M 340.34375 32.96875 C 331.03207 32.96875 319.71838 44.561308 311.28125 62.78125 C 309.3266 67.00231 304.46649 80.14375 300.46875 91.96875 C 296.471 103.79375 293.1677 112.68592 293.125 111.75 C 292.92662 107.39865 296.23173 74.63866 297.5625 67.8125 C 298.38375 63.599885 300.21035 56.675421 301.59375 52.4375 C 304.50438 43.520993 304.38866 43.267157 296.625 39.46875 C 285.52553 34.038284 274.35938 35.183019 262.71875 42.96875 C 245.15329 54.717246 232.22553 74.754066 222.59375 105.09375 C 218.82578 116.96268 214.03125 138.54241 214.03125 143.71875 C 214.03125 146.58295 214.34117 146.8044 220.59375 148.375 C 224.19907 149.28062 229.48657 150.88278 232.34375 151.96875 C 235.20093 153.05471 237.75625 153.96883 238.03125 153.96875 C 238.30625 153.96868 238.56435 148.00589 238.59375 140.71875 C 238.64075 129.0489 238.97138 126.48536 241.375 119.25 C 245.87454 105.70554 253.26775 97.96875 261.71875 97.96875 C 266.56975 97.96875 272.37912 100.5111 275.75 104.125 C 278.99524 107.6042 282.91379 116.81471 284.6875 125.125 C 287.60742 138.80555 284.96798 161.36055 279.09375 172.875 L 277.1875 176.59375 C 282.9519 181.09516 286.3027 185.01906 290.0625 191.46875 C 334.79194 216.48082 339.14795 220.67717 362.34375 217.0625 C 375.22447 214.79361 383.49551 207.64566 390.5625 192.65625 C 407.75274 156.19498 406.93826 121.43994 388.03125 83.46875 C 376.3744 60.05815 361.89908 42.024139 349.90625 36.03125 C 346.50845 34.333351 342.20281 32.96875 340.34375 32.96875 z M 326.59375 106.0625 C 328.82395 106.07568 331.05827 106.76044 333.8125 108.09375 C 343.39781 112.73391 348.94319 125.29195 349.78125 144.1875 C 350.74653 165.95158 344.54763 185.53362 335.125 190.40625 C 331.11505 192.47988 324.3238 192.27181 319.90625 189.9375 C 312.6671 186.11223 306.43651 175.5738 303.4375 162.09375 C 298.90321 141.71301 307.09596 113.97444 319.4375 108 C 322.1253 106.69886 324.36355 106.0493 326.59375 106.0625 z M 508.53125 422.21875 L 500.8125 427.65625 L 493.0625 433.125 L 499.3125 439.28125 C 508.28009 448.17011 513.00485 459.02624 513.03125 470.71875 L 513.03125 475.96875 L 518.4375 475.96875 C 544.1216 475.96875 569.47228 503.17404 588.34375 550.96875 C 594.0046 565.30565 595.26785 574.5666 594.9375 599.96875 C 594.78604 611.61444 595.07907 619.20976 595.75 620.46875 C 597.54106 623.82961 602.96295 641.0536 604.5625 648.46875 C 605.39299 652.31875 606.49695 661.6377 607.03125 669.1875 C 608.51597 690.16672 612.78441 707.01207 621 724.5625 C 626.687 736.71128 632.05401 743.92234 641.09375 751.5625 C 650.76696 759.73806 655.59908 762.77055 661.875 764.5 C 668.43053 766.3065 681.88881 766.24828 690.125 764.375 C 696.78555 762.86009 697.36693 762.49262 702.25 756.625 C 709.21223 748.25904 712.01905 741.94496 712.03125 734.65625 C 712.03625 731.45759 711.52979 727.85759 710.90625 726.65625 C 710.28271 725.45491 704.73513 719.29375 698.59375 712.96875 C 678.32232 692.09123 673.93627 682.44765 663.5625 635.96875 C 658.02649 611.16509 652.15279 594.51252 640.9375 572.03125 C 619.59456 529.24889 597.55124 497.09914 570.09375 468.6875 C 551.08617 449.01942 531.38816 433.62651 514.53125 425.21875 L 508.53125 422.21875 z "
       style="fill:#ffffff" />
    <path
       id="path3816"
       d="M 405.1875 62.375 C 405.1322 62.395394 405.1413 62.458751 405.1875 62.5625 C 405.41014 63.06281 408.58811 69.543749 412.25 76.96875 C 423.01192 98.79011 427.134 115.83692 427.125 138.46875 C 427.117 159.86394 423.05925 176.97671 413.46875 196.15625 C 405.193 212.7065 397.53002 221.64856 386.03125 228.21875 C 376.18434 233.84511 361.67693 235.54986 350.03125 232.46875 C 342.54554 231.43199 311.92082 210.96316 291.5625 195.0625 C 305.56435 216.95255 307.26614 228.84231 285 207.65625 C 239.74834 164.59962 189.22238 151.47708 146.9375 171.8125 C 117.51788 185.96082 93.16231 211.3446 77.75 243.9375 C 58.53223 284.57794 54.46762 327.59367 66.5 363.4375 C 79.48286 402.11278 111.02296 435.97749 160.03125 463.84375 C 166.90625 467.75289 172.6127 470.9684 172.6875 470.96875 C 172.7623 470.96911 174.63487 467.93125 176.84375 464.21875 C 195.40225 433.02725 225.82735 404.88058 257.03125 390.09375 C 280.47613 378.98374 300.13531 374.2059 326.0625 373.28125 L 342.625 372.6875 L 342.59375 359.5625 C 342.57665 339.09002 346.92145 326.47372 360.125 308.5625 C 364.01416 303.28667 367.32537 298.96875 367.46875 298.96875 C 367.61213 298.96875 366.21924 306.50625 364.375 315.71875 C 355.99989 357.55479 359.68073 380.08308 378.03125 399.3125 C 382.16191 403.64101 389.05569 410.11094 393.34375 413.6875 C 397.63181 417.26405 400.97819 420.36555 400.78125 420.5625 C 399.98729 421.35646 379.13413 415.08916 373.53125 412.375 C 367.70167 409.55102 352.82142 396.25574 351.84375 393 C 351.50303 391.86534 348.70026 391.48439 338.84375 391.15625 C 298.30471 389.80664 261.76261 402.58774 230.34375 429.15625 C 222.18272 436.05737 211.03125 447.40212 211.03125 448.8125 C 211.03125 450.38694 235.26082 457.48892 253.53125 461.28125 C 271.65329 465.04279 282.96031 466.2739 300.03125 466.3125 C 322.27479 466.3628 337.3979 463.5469 355.53125 456 L 364.84375 452.15625 L 368.0625 460.46875 L 371.28125 468.8125 L 377.90625 469.59375 C 400.41225 472.16658 420.24505 468.08369 433.78125 458.09375 C 438.70352 454.46103 438.82647 453.63361 436.03125 442.96875 C 434.9501 438.84375 434.0715 434.70252 434.0625 433.78125 C 434.05 432.55854 436.2591 431.39598 442.28125 429.46875 C 463.55191 422.66165 487.02099 408.67577 503.125 393.21875 C 523.52204 373.64118 534.31494 353.74355 538.5 327.9375 C 540.53298 315.40169 540.53599 287.99193 538.5 274.28125 C 532.99104 237.17932 518.24945 219.82616 488.03125 196.65625 C 455.09244 174.04179 399.97224 147.09846 463.78125 161.78125 L 472 163.625 L 471.375 161.03125 C 469.84311 154.63871 462.34605 134.53816 458.0625 125.375 C 449.22869 106.47813 435.84352 87.45608 423.3125 75.90625 C 417.68069 70.715417 406.01632 62.069097 405.1875 62.375 z M 180.6875 220.8125 C 186.87632 220.79175 192.05134 223.24881 195.0625 228.1875 C 198.04808 233.08424 197.71478 237.2502 193.5 248.84375 C 193.21571 249.62575 191.62308 247.47323 189.78125 243.84375 C 185.60238 235.60893 184.19429 235.42181 173.15625 241.6875 C 165.97694 245.76281 163.67866 247.74092 157.46875 255.4375 C 153.47243 260.39054 149.05749 265.81875 147.65625 267.46875 L 145.125 270.46875 L 145.09375 261.3125 C 145.05275 250.88421 147.42163 241.57028 151.53125 236 C 152.93043 234.10352 156.78445 230.63726 160.125 228.3125 C 167.27054 223.33975 174.49868 220.8332 180.6875 220.8125 z M 517.6875 494.53125 C 506.33454 494.46405 506.26673 500.04657 517.15625 528.1875 C 525.40511 549.50438 527.27525 558.07388 527.28125 573.96875 C 527.28625 585.72935 526.96595 588.62835 524.625 596.46875 C 523.14706 601.41875 520.12242 608.78191 517.9375 612.84375 C 515.75257 616.9056 514.17087 620.42087 514.40625 620.65625 C 514.64163 620.89162 517.11423 622.52083 519.90625 624.28125 C 528.88853 629.76931 519.99697 645.63345 508.40625 638.8125 C 486.04149 625.22544 460.52728 619.77941 443.625 625 C 432.24916 628.51363 427.03107 634.86761 427.03125 645.1875 L 427.03125 650.46875 L 437.78125 650.53125 C 446.71745 650.62765 453.20063 657.09635 459.28125 653.6875 C 463.72237 651.42885 469.50927 645.77193 470.625 644.28125 C 477.61664 636.71791 485.38753 648.88296 467.40625 666.96875 C 464.35303 669.74044 437.23132 686.44312 432.71875 679.59375 C 429.85405 675.60241 445.86903 671.57716 446.75 667.65625 C 446.6771 664.74924 434.86278 658.07124 419.5 670.40625 C 413.40051 675.43483 411.72957 685.94734 412.25 694.9375 C 412.79291 704.31592 416.85407 712.64447 424.25 719.5625 C 429.0363 724.03952 429.33406 724.14304 433.875 723.5 C 436.45027 723.13532 441.13501 722.11887 444.3125 721.25 C 455.53735 717.3066 465.28991 736.30929 447.75 739.46875 C 445.70651 739.85215 444.03125 740.52885 444.03125 740.96875 C 444.03125 742.3105 450.29261 747.16155 454.53125 749.09375 C 459.74965 751.47258 465.35148 751.43895 472.53125 748.96875 C 476.15288 747.00002 481.197 752.80889 480.53125 758.46875 L 486.03125 759.6875 C 493.46023 761.33907 509.50974 760.50439 520.03125 757.9375 C 545.57638 751.70534 560.31064 736.64029 564.53125 712.4375 C 567.02223 698.15316 566.09272 684.5452 561.46875 667 L 558.96875 657.53125 L 560.96875 655 C 573.7121 638.82048 579.75392 606.72505 575.9375 575.46875 C 573.45781 555.16021 555.86073 520.77103 540.21875 505.6875 C 531.76771 497.53818 525.77528 494.57915 517.6875 494.53125 z M 305.09375 583.53125 C 304.54286 583.52327 303.6674 583.75181 302.28125 584.125 C 289.55949 587.55007 271.903 604.08049 266.96875 614.1875 C 259.7753 630.27315 261.86934 633.91639 271 646.21875 C 282.52928 663.67553 296.1474 675.873 304.15625 675.875 C 305.7744 675.87547 308.30814 674.58835 310.4375 672.71875 C 316.36239 667.51662 321.48834 660.43796 317.09375 645.875 C 311.55665 627.52594 306.03125 597.66347 306.03125 586 C 306.03125 584.23302 306.01189 583.54455 305.09375 583.53125 z M 265.84375 653.21875 L 260.125 661.46875 C 256.05047 667.89361 254.69236 673.12389 255.3125 680.03125 C 255.98587 687.53163 258.25288 691.67111 262.3125 692.84375 C 266.80703 694.14202 278.33393 694.1813 281.6875 692.90625 C 283.21815 692.3243 286.42272 690.24514 288.78125 688.3125 L 295.625 681.5 L 289.84375 677.625 C 284.13875 673.81535 275.05631 664.93358 268.96875 657.1875 L 265.84375 653.21875 z M 324.1875 675.1875 C 323.60316 675.30453 321.59866 676.43335 319.375 677.90625 C 316.83367 679.58956 313.56388 681.22832 312.09375 681.5625 C 310.36528 681.9554 308.20663 683.96473 305.96875 687.25 C 304.06534 690.04425 301.02783 693.52528 299.21875 694.96875 C 297.40969 696.41221 295.90627 697.9372 295.90625 698.375 C 297.13763 702.16189 316.46946 712.94285 324 708.125 C 327.77259 706.10174 327.59191 706.33394 331.9375 696.625 C 333.97343 692.0961 335.96044 689.98019 332.90625 685.625 C 332.23675 684.30023 331.42838 682.43897 330.3125 681.0625 L 324.1875 675.1875 z M 622 761.09375 L 619.53125 764 L 609.125 776.25 L 630.25 792.5 C 631.542 793.51238 641.59375 798.81704 652.59375 804.28125 C 673.35099 814.59232 690.82047 821.14677 704.59375 823.75 C 708.99375 824.58163 713.49375 825.45378 714.59375 825.6875 C 717.99078 826.40925 738.36703 825.7214 740.4375 825.46875 C 771.90962 821.62841 765.46772 814.42097 748.8125 804.25 C 743.29512 800.88066 733.43352 792.17626 726.03125 786.15625 L 712.5625 775.21875 L 700.59375 780.625 C 698.37102 781.41495 692.03125 782.75766 686.53125 783.59375 C 671.79888 785.83331 660.41858 784.36423 647.65625 778.625 L 622 761.09375 z "
       style="fill:#ffdd55" />
    <path
       id="path3810"
       d="M 563.25 375.0625 C 562.08517 375.08 560.91854 375.10935 559.78125 375.15625 C 550.54184 375.53693 548.47059 375.91787 547.59375 377.375 C 543.25815 384.57993 536.26284 394.47574 531.6875 399.875 L 526.25 406.3125 L 534.65625 411.3125 C 550.38464 420.68867 564.10239 431.83721 582.0625 449.875 C 591.69139 459.54553 602.21539 470.90788 605.46875 475.125 L 611.375 482.78125 L 616.46875 480.8125 C 619.2615 479.71699 625.57175 476.69662 630.5 474.125 C 635.42825 471.55339 641.44689 467.55921 643.875 465.25 L 648.28125 461.0625 L 647.78125 446.25 C 647.37006 434.06655 646.80479 429.87688 644.59375 422.46875 C 641.45791 411.96207 635.12795 397.05357 631.03125 390.59375 C 628.32952 386.33356 627.61415 385.90982 619.40625 383.40625 C 601.1062 377.82439 580.72238 374.7987 563.25 375.0625 z M 661.46875 403.125 C 661.30775 403.1601 661.27045 403.27153 661.34375 403.5 C 668.19844 424.86773 670.38516 437.41728 669.90625 452.59375 L 669.5625 462.71875 L 678.5625 472.125 C 700.87312 495.5041 720.55622 531.87671 730.625 568.3125 L 732.25 574.1875 L 738.40625 573.5625 C 741.78597 573.21026 747.79375 572.39397 751.78125 571.78125 L 759.03125 570.6875 L 759.03125 564.0625 C 759.01935 550.68281 754.36695 527.6567 747.96875 509.3125 C 737.25301 478.5895 711.79183 442.12663 685.6875 420.125 C 674.92188 411.05136 663.02487 402.78572 661.46875 403.125 z M 657.53125 482.625 C 656.94455 482.62916 656.44843 483.08597 655.65625 483.8125 C 652.39439 486.80402 640.39632 493.8501 632.25 497.5625 C 627.04243 499.93566 625.13695 501.28443 625.6875 502.1875 C 626.11447 502.88788 629.20982 507.74375 632.59375 512.96875 C 645.65533 533.13665 665.07449 570.03455 672.3125 588.46875 C 678.00418 602.96464 682.70949 619.8694 687.0625 641.40625 C 688.47657 648.40249 688.11021 648.6693 696.59375 634.34375 C 706.77552 617.15051 711.49065 602.43813 711.46875 587.96875 C 711.45545 579.19072 711.07177 577.30406 706.3125 563.21875 C 695.7755 532.03391 680.01939 504.36443 663 487.15625 C 659.72884 483.8488 658.50908 482.618 657.53125 482.625 z M 758.75 592.75 L 755.15625 593.375 C 753.17678 593.72886 747.43314 594.29318 742.40625 594.625 L 733.25 595.25 L 732.625 600.125 C 730.12747 618.95227 717.42043 645.62415 700.90625 666.71875 L 696 672.96875 L 698.46875 677.78125 C 702.52932 685.7944 713.1184 698.97675 715.5 698.96875 C 716.07961 698.96675 719.32292 694.80419 722.71875 689.71875 C 741.50849 661.58013 753.72699 630.04261 757.875 599.09375 L 758.75 592.75 z M 330.9375 732.5625 C 323.25553 732.65949 315.85377 733.27515 311.53125 734.375 C 290.48771 739.72948 276.34551 752.5615 267.71875 774.125 C 263.71967 784.12112 262.0788 792.48695 262.0625 803 C 262.0347 820.94989 267.63491 834.66617 280.0625 847.09375 C 286.46282 853.49408 289.45481 855.60188 298.125 859.8125 C 315.88258 868.43634 331.93335 871.71948 357.40625 871.875 L 373.28125 871.96875 L 372.53125 867.21875 C 371.31374 859.22648 371.88961 837.9703 373.5625 828.46875 C 375.34972 818.3179 379.70135 804.56189 383.625 796.71875 C 387.80612 788.36095 396.64753 777.24896 403.125 772.21875 C 406.40471 769.67183 408.73724 767.32062 408.3125 766.96875 C 407.88776 766.61688 403.03125 763.31544 397.53125 759.65625 C 392.03125 755.99706 383.93125 749.86462 379.53125 746 C 370.86002 738.38384 366.49706 736.43575 352.03125 733.84375 C 346.58164 732.86728 338.61947 732.4655 330.9375 732.5625 z M 455.53125 774 C 419.35908 773.9874 398.63927 792.89783 391.53125 832.375 C 389.16493 845.51722 389.87672 865.2913 393.0625 875.46875 C 402.54071 905.74829 429.61667 925.98929 465.875 929.90625 C 471.19353 930.4808 477.10625 931.14767 479.03125 931.375 C 486.1889 932.22028 519.82247 931.01464 528.03125 929.625 C 542.08557 927.24578 552.7591 923.93043 562.75 918.84375 L 572.21875 914.03125 L 579.375 914.96875 C 583.31552 915.48079 591.03125 915.89925 596.53125 915.90625 C 618.94549 915.93655 632.90546 909.68754 645.3125 894.09375 L 650.53125 887.53125 L 650.46875 873.5 C 650.39875 858.06684 648.43685 847.53367 643.5625 836.5625 L 633.34375 824.1875 L 631.15625 827.1875 C 628.04018 831.41 623.52031 835.01594 617.84375 837.8125 C 599.86774 845.89382 601.63666 836.43268 621.53125 822.96875 C 624.04442 820.34557 624.26433 819.54038 623.84375 814.46875 C 623.50784 810.41817 622.55905 807.73851 620.4375 804.6875 C 616.84951 799.5276 603.88165 790.61141 596.75 788.40625 C 587.84452 785.65261 571.39096 785.42123 557.21875 787.84375 C 550.43495 789.00334 533.29437 794.54594 532.8125 794.84375 C 532.33063 795.14156 536.31559 800.46783 541.65625 806.6875 C 550.3237 817.70971 563.71296 840.79769 544.96875 821.4375 C 526.5001 798.1817 505.12246 782.64251 486.03125 778.5625 C 481.90625 777.68094 475.60625 776.28163 472.03125 775.46875 C 468.45625 774.65587 461.03125 774.002 455.53125 774 z "
       style="fill:#008000" />
    <path
       id="path3804"
       d="M 473.15625 452.25 C 472.56213 452.2434 472.25541 452.60816 471.84375 453.34375 C 471.34948 454.22695 468.36144 458.19342 465.1875 462.1875 C 453.37202 477.05602 437.70302 487.08785 418.03125 492.40625 C 408.14774 495.07832 382.94468 495.65928 370.03125 493.5 C 359.98116 491.84206 349.12699 489.99861 337.53125 487.96875 C 332.22733 489.06984 331.73311 489.42535 330.03125 493.3125 C 327.31687 499.51234 326.65567 506.11599 328.03125 513.40625 L 329.25 519.84375 L 334.40625 520.875 C 339.78161 521.94268 350.3892 523.65281 355.53125 524.28125 C 363.93489 525.30832 393.51679 524.78964 403.03125 523.4375 C 415.23517 521.70314 429.2203 518.05911 439.96875 513.8125 C 456.73897 507.18674 478.28604 494.01224 485.15625 486.1875 C 487.78868 483.18933 488.03125 482.20816 488.03125 475.5625 C 488.03125 471.53871 487.53001 466.71333 486.90625 464.84375 C 485.48334 460.57889 480.79932 455.53379 476.25 453.375 C 474.65283 452.6171 473.75037 452.257 473.15625 452.25 z M 492.40625 514.09375 C 492.24995 513.88589 487.89851 516.41477 482.75 519.75 C 464.86828 531.33386 446.63044 539.28634 426.1875 544.375 C 407.77615 548.95797 402.74912 549.451 376.03125 549.375 C 354.84047 549.3147 348.67237 548.97732 339.53125 547.28125 C 333.48125 546.15872 328.44612 545.30186 328.3125 545.40625 C 327.13171 546.32875 326.03125 559.09542 326.03125 572.15625 L 326.03125 588.0625 L 331.78125 590.625 C 343.77399 595.96615 360.16573 599.19424 383.53125 600.8125 C 384.63125 600.8887 391.45389 600.48933 398.6875 599.9375 C 428.93539 597.62998 460.98594 589.11876 491.5 575.25 C 498.1237 572.2395 504.79795 569.25626 506.34375 568.625 C 509.03727 567.52505 509.14255 567.26814 508.53125 562.46875 C 508.18043 559.7144 506.15946 552.51875 504.0625 546.46875 C 499.22826 532.52134 492.77747 514.5874 492.40625 514.09375 z M 506.875 589.25 C 505.58655 589.3395 502.31243 590.66961 494.84375 593.90625 C 466.46664 604.72565 429.12513 615.43658 403.53125 618.03125 C 381.29293 620.05063 357.82612 618.02525 338.4375 612.40625 C 334.27621 611.20036 330.64106 610.3097 329.65625 610.25 C 329.51556 610.241 329.43275 610.25505 329.40625 610.28125 C 328.06912 611.61838 336.39495 642.36713 341.9375 656.53125 C 347.98656 671.98978 347.91069 671.84696 354.21875 675.03125 C 367.48641 681.72875 382.56496 686.70047 390.1875 686.875 C 393.5225 686.9514 393.86889 686.69749 394.4375 683.71875 C 395.56166 677.82966 399.8004 670.20231 404.875 664.9375 L 409.875 659.75 L 408.90625 653.09375 C 407.80706 645.3603 414.17934 633.73411 421 627.65625 C 439.94767 613.70432 464.62849 606.14913 486.4375 613.40625 C 495.07133 616.30309 498.51761 619.59159 500.4375 617.4375 C 502.20416 615.45534 505.54243 597.50261 506.34375 594.46875 C 506.63429 593.36875 507.16188 591.49458 507.5 590.3125 C 507.70736 589.58756 507.64807 589.1963 506.875 589.25 z M 585.78125 651.25 C 585.07721 651.22121 584.10871 652.84138 582.53125 655.6875 L 579.28125 661.5625 L 581.34375 670.5 C 584.34905 683.44967 584.33633 712.14241 581.3125 722.78125 C 579.45242 729.32558 579.39622 730.02888 580.875 729.46875 C 581.78476 729.12416 586.25748 727.18776 590.8125 725.15625 C 597.79786 722.04082 599.0347 721.15566 598.625 719.46875 C 598.35784 718.36875 596.57774 711.94802 594.65625 705.21875 C 591.38142 693.7499 590.61794 688.98735 588.09375 663.375 C 587.2572 654.88676 586.81024 651.2921 585.78125 651.25 z M 365.375 700.28125 C 364.70132 700.95492 376.18898 714.60142 384.5625 723.0625 C 395.7486 734.36557 409.20758 744.42096 422.78125 751.6875 C 428.1587 754.56627 432.63454 756.9285 432.75 756.9375 C 432.86545 756.9465 430.75383 753.93125 428.0625 750.21875 C 425.37117 746.50625 422.06465 742.39697 420.71875 741.09375 C 419.37284 739.79052 414.94212 735.51552 410.84375 731.59375 C 405.03795 726.0381 402.46615 722.61187 399.21875 716.09375 C 396.92639 711.49257 395.03125 707.15254 395.03125 706.46875 C 395.03125 705.62275 392.39517 705.06251 386.78125 704.6875 C 382.24375 704.3844 375.64515 703.22094 372.09375 702.09375 C 368.54236 700.96655 365.5089 700.14734 365.375 700.28125 z M 606.125 738.625 C 604.95467 738.60239 603.32042 739.39106 600.5 740.78125 C 594.33971 743.81766 574.59047 751.74096 567.53125 754 C 565.33125 754.70403 561.50625 756.95437 559.03125 759.03125 C 556.55625 761.10813 551.83125 764.48466 548.53125 766.5 C 545.23125 768.51533 543.43125 769.88395 544.53125 769.5625 C 545.63125 769.24105 551.03125 768.2974 556.53125 767.46875 C 562.03125 766.64009 568.54067 765.97175 570.96875 765.96875 C 575.58012 765.96275 580.72341 763.52306 599.03125 752.6875 C 609.98989 746.2016 611.22559 745.14873 610.09375 743.09375 C 608.40648 740.03036 607.62972 738.6541 606.125 738.625 z M 281.75 875.96875 C 280.50266 875.95392 280.074 877.10185 280.0625 879.46875 C 279.9701 898.43942 308.57645 911.24475 359.03125 914.84375 C 380.14046 916.3495 378.17764 916.71339 382.5 910.4375 L 386.28125 904.9375 L 382.8125 898.375 L 379.34375 891.78125 L 352.9375 891.59375 C 329.87265 891.40641 325.24204 891.07545 316.25 889.125 C 304.67898 886.61515 293.4384 882.44707 286.34375 878.03125 C 284.17385 876.68067 282.72015 875.98025 281.75 875.96875 z M 645.34375 919.84375 L 640.6875 922.96875 C 628.47192 931.21295 615.03502 934.18321 591.53125 933.875 L 574.53125 933.65625 L 566.9375 937.28125 C 550.17411 945.24432 531.40922 948.94072 504.125 949.6875 C 458.08347 950.94768 430.1717 944.01802 405.78125 925.25 L 399.78125 920.65625 L 397.9375 923.0625 C 394.76139 927.18152 392.73437 933.56454 393.4375 937.3125 C 394.21401 941.45166 400.58974 947.68412 407.75 951.3125 C 423.72141 959.40583 455.62092 967.41814 483.53125 970.34375 C 491.73431 971.20361 524.84503 970.02837 533.53125 968.5625 C 547.66013 966.17814 561.57848 962.24836 573.53125 957.3125 C 579.58125 954.81417 584.98125 952.7935 585.53125 952.8125 C 601.09928 953.34948 612.56636 952.9115 618.3125 951.5625 C 634.83826 947.68281 643.59382 939.1585 644.8125 925.71875 L 645.34375 919.84375 z "
       style="fill:#deaa87" />
    <path
       id="path3780"
       d="m 346.5,708.96875 c 0.25565,0 0.94255,0.9 1.53125,2 0.85431,1.5963 0.75656,2 -0.46875,2 -0.86851,0 -1.53125,-0.86852 -1.53125,-2 0,-1.1 0.2131,-2 0.46875,-2 z"
       style="fill:#000000" />
  </g>
  <g
     transform="matrix(1.1241579,0,0,1.1241579,6.1707036,10.815747)"
     id="layer1"
     inkscape:label="Layer 1"
     style="fill:#ffffff">
    <path
       sodipodi:nodetypes="cccccccccccccccccccccccccccccccccccccccccccccccccccccccccccccccccccccccccccccccccccccccccccccccccccccccccccccccccccccccccccccccccccccccccccccccccccccccccccc"
       inkscape:connector-curvature="0"
       id="path3014"
       d="m 307.1875,905.71875 c -14.71172,3.2326 -22.31955,18.30825 -29,30.40625 -4.49318,7.45262 -6.22013,17.19447 -14.625,21.25 -17.76798,12.53713 -38.12863,22.31396 -59.3125,27.46875 -0.3142,-4.64999 6.61897,-9.94743 2.8125,-14.34375 -4.61504,-3.16743 -8.625,3.63785 -12.08529,5.76466 -4.75886,3.82132 -11.03967,10.61276 -17.60221,7.95409 -1.45825,-3.41545 3.35251,-6.22842 4.96875,-8.75 6.89968,-7.22275 16.12499,-11.73841 25.71875,-14.0625 3.45541,-2.64846 -0.33029,-8.46633 -4.34375,-6.28125 -25.81695,3.40362 -48.32781,18.63648 -72.625,26.9375 -2.26497,-1.0872 -0.0214,-5.3822 0.3125,-7.3125 0.69983,-4.83164 5.53748,-9.1608 4.46875,-14.0625 -3.21407,-5.06602 -8.56513,0.90827 -12.25,2.15625 -3.12208,1.37389 -6.62086,2.61142 -10.0625,1.875 4.70771,-1.97528 6.88597,-9.9423 1.125,-11.9375 -6.01239,-2.32388 -13.33293,3.59621 -11.71875,10 -14.010472,8.59332 -28.639706,19.44401 -45.65625,19.84375 -3.977455,-0.2357 -9.543485,-3.35825 -10.75,-5.78125 10.041957,-1.90604 22.179135,-5.00562 27.21875,-14.65625 2.262241,-5.309 -4.47016,-8.56583 -8.90625,-7.375 -8.691717,1.27006 -17.056005,5.16909 -24.21875,10.21875 4.806918,-8.62423 8.067377,-18.4849 16.618819,-24.18222 6.854974,-7.48036 16.669092,-12.99465 21.099931,-22.19278 1.624579,-3.59966 0.229384,-9.53363 -4.6875,-8.65625 -13.149714,2.38383 -19.00283,16.15481 -25.720468,26.14628 -5.128464,10.90567 -16.46923,16.78085 -25.531196,24.10028 -6.453101,5.05244 -14.2669788,8.3473 -20.842086,12.97219 -2.55369492,3.45819 2.527214,7.43068 5.5432678,4.69451 C 17.099482,972.73738 26.522343,966.52557 35.3125,959.625 c -4.139619,8.90878 -9.77205,17.12347 -14.78125,25.34375 -0.902765,4.72442 6.033614,5.59731 7.647675,1.53819 3.313282,-1.50474 6.918628,-11.09571 10.172939,-6.97828 6.622204,7.95413 17.740297,13.23821 27.987462,8.98787 14.523745,-3.9432 27.587521,-12.09399 40.379424,-19.51653 5.38263,4.27985 13.55118,2.55565 18.9375,0.78125 -1.63961,5.42026 -5.57267,13.99062 0.125,18.25 8.03523,3.02658 16.46537,-2.8487 23.90625,-5.40625 9.44559,-4.22777 18.6742,-9.05396 28.3125,-12.75 -5.06354,4.26202 -11.68828,12.72609 -5.90625,19.09375 6.41129,6.45541 16.30824,1.32417 22.3125,-3.125 2.86844,-2.86561 2.3499,-0.93577 2.625,1.78125 1.55762,6.42871 10.26403,4.35012 14.75,2.875 18.181,-5.68964 35.68488,-13.61512 51.40625,-24.1875 -3.09137,4.68634 -9.28262,6.85923 -12.84375,11.53125 -9.49825,10.26876 -17.39725,22.45595 -22.03125,35.59375 -1.55256,4.143 3.01827,8.5437 6.84375,5.5 14.08991,-8.5066 21.61969,-24.14295 28.90625,-38.3125 6.12784,8.37994 18.00317,4.00086 25.48818,0.0528 6.54492,-3.31279 13.42004,-7.93069 19.07432,-11.58404 -2.73396,5.77843 -9.05798,13.70543 -4.40625,19.96875 6.59085,4.87066 15.37199,-0.386 21.90625,-2.84375 14.65417,-6.06584 30.86286,-12.91659 44.4375,-19.21875 -2.47395,6.7757 -9.52748,14.05773 -6.40625,21.6875 4.04945,5.50959 12.09614,1.29037 16.6875,-1.4375 3.22197,-1.83266 6.30211,-3.85806 9.28125,-6.03125 -11.26251,22.08054 -23.40224,43.88534 -34.15625,66.12504 -0.42962,4.5933 6.93936,5.0525 7.4375,0.4687 18.20659,-34.6902 46.69445,-65.69557 83.46875,-80.46874 -2.13196,4.89827 -6.4945,9.57251 -6.71875,15 0.92885,4.27254 6.08451,2.99085 8.46875,0.75 12.46683,-6.41835 24.09662,-14.58749 36.90625,-20.03125 3.79065,-0.22644 -0.4504,4.1045 -1.6875,4.875 -4.66637,5.09457 -11.93334,9.64567 -12.90625,16.90625 0.29815,6.46911 8.91037,5.16179 13.0625,3.875 14.87586,-4.41255 29.286,-12.8292 43.125,-18.21875 -4.73844,4.60775 -10.95448,13.33586 -5.5625,19.53125 6.5432,4.49225 15.48917,1.10289 21.96875,-1.9375 4.07073,-1.64561 7.51574,-6.11909 10.59375,-7.84375 11.21459,6.73753 25.03522,1.91412 34.96875,-4.9375 3.3901,-2.00278 7.21329,-4.41192 10.46875,-5.90625 -5.58554,4.91117 -10.65751,15.68604 -3.53125,21.375 7.61339,3.73906 16.78005,-0.96777 23.40625,-5 3.24806,-1.2653 5.36119,-7.06454 9,-4.125 16.42108,5.23772 32.7501,-4.80599 45.02436,-14.84232 4.13191,-3.182 8.29346,-6.35169 12.22564,-9.81393 -5.31916,10.26858 -11.98388,19.90958 -17.03125,30.125 -0.49864,4.09834 5.59569,5.53495 7.0625,1.5625 2.64026,-4.09774 5.67399,-8.46014 9.34375,-11.3125 6.02954,8.65389 16.67474,15.7423 27.59375,12.21875 9.74307,-3.03334 18.52872,-9.03529 27.5,-13.75 3.03709,-3.21437 -1.87192,-7.93085 -5.14998,-5.15782 -10.47537,4.04906 -19.82916,13.90285 -31.66252,12.25157 -4.52303,-1.08295 -7.92613,-4.49532 -10.90625,-7.875 10.54297,0.9282 25.01422,-1.47982 28.09375,-13.25 1.64375,-5.33733 -4.15031,-9.00596 -8.90625,-7.34375 -8.09207,1.79359 -15.53825,6.07461 -22.28125,10.5625 6.46033,-10.0854 10.72311,-22.02292 20.76517,-29.19847 5.39939,-6.31867 14.53688,-10.60261 16.73483,-19.05153 1.34402,-5.33373 -5.26935,-7.1783 -9,-5.03125 -13.99117,6.08419 -15.58213,24.59105 -27.9645,32.73393 -11.22813,9.7133 -23.10104,18.94227 -35.69175,26.64107 -7.06027,3.19202 -15.67731,6.57511 -23.34375,3.71875 4.61718,-4.07491 5.04961,-14.59461 -2.65625,-15.15625 -1.65521,0.0963 -1.70426,-3.97896 -4.5,-3.5 -17.32807,-1.16302 -31.86976,9.46786 -46.15625,17.375 -5.75944,3.13473 -14.28972,4.19517 -19.5625,0.40625 2.58714,-4.27564 4.60926,-12.7884 -1.71875,-14.71875 -2.1181,0.17588 -2.70945,-0.71527 -3.90625,-2.25 -4.5378,-1.78758 -9.71491,1.45843 -14.36936,1.98785 -19.95433,5.19458 -37.49654,16.70318 -56.94314,23.13715 -3.10773,0.2978 5.08662,-5.45088 5.83601,-7.23343 4.00473,-4.01439 10.27987,-11.11952 5.66399,-16.82907 -5.94814,-4.4387 -13.57815,0.87543 -19.375,3.21875 -7.09549,3.53962 -13.97279,7.47982 -20.84375,11.4375 3.43684,-3.71196 6.33395,-12.64463 -0.9375,-13.65625 -9.25883,0.56619 -17.66616,6.18686 -25.71875,10.4375 -13.40765,8.20068 -25.72044,18.23984 -36.71875,29.4375 5.00475,-10.40073 11.39111,-20.42751 15.75,-31 -0.1361,-4.61402 -6.69569,-4.37374 -8.5,-0.75 -7.7552,6.35493 -15.92691,13.37473 -25.25,16.84375 2.35111,-9.9311 8.98736,-18.09989 14.6875,-26.1875 0.87541,-4.38085 -5.28925,-5.86264 -7.78329,-2.64076 -20.72121,10.75501 -42.01504,21.30789 -64.46671,27.60951 -4.29363,0.4375 -0.56402,-5.5534 -0.0312,-7.40625 4.02649,-7.4485 7.49737,-15.69554 14.21875,-21.15625 14.07466,-2.25693 28.94369,-4.0771 41.65625,-10.59375 3.22227,-2.96923 -1.57748,-8.05825 -5,-5.4375 -8.7947,3.12637 -17.9193,5.39223 -27.125,7.1875 7.91717,-7.49231 17.67132,-15.44826 19.5625,-26.75 0.40603,-5.58731 -6.88301,-6.24926 -9.9375,-2.9375 -10.26201,8.83455 -16.82263,21.12247 -24.90625,31.875 -5.39294,1.36656 -11.77239,-1.04688 -16.75,1.46875 -2.9998,3.19893 1.15784,7.81189 5,6.3125 5.248,-0.65652 5.79678,0.33344 1.3125,3.09375 -11.73649,7.42951 -23.00594,17.42722 -37,19.78125 -5.50316,0.80891 -7.70271,-7.08217 -3.90836,-10.46453 2.82449,-6.89552 6.48518,-13.10103 12.76746,-17.33951 10.53865,-10.22531 21.42681,-21.25363 28.7659,-34.10221 2.70467,-4.39887 1.89837,-11.6805 -4.8125,-10.625 z m -2.25,8.4375 c -4.78801,9.13942 -13.17939,16.15209 -19.65625,24.15625 4.76485,-9.24782 9.92958,-19.5758 19.65625,-24.15625 z m -19.65625,24.1875 c -0.0939,0.1896 -0.072,-0.0374 0,0 z m 427.625,23.34375 c -3.33484,4.57409 -9.44699,6.12331 -14.875,6.28125 4.65588,-2.74903 9.62169,-5.13891 14.875,-6.28125 z m -648.0625,0.59375 c -5.208909,4.12625 -11.763358,6.37175 -18.1875,7.34375 5.248273,-3.64473 12.589429,-6.96829 18.1875,-7.34375 z m 556.28125,2.1875 c -2.06625,3.18155 -2.356,7.55272 -0.5,10.90625 -5.66049,4.69743 -12.87332,10.38816 -20.65625,9.21875 -2.13845,-4.41087 3.80988,-8.44302 6.3125,-11.1875 4.30874,-3.77174 9.04266,-7.54355 14.84375,-8.9375 z m -74,0.625 c -1.78715,3.32412 -0.75715,7.6505 0.875,10.46875 -5.18101,5.62811 -13.3514,10.43059 -21.0625,9 0.96405,-6.98696 8.09857,-11.95726 13.40625,-15.9375 2.08156,-1.26782 4.87872,-3.05281 6.78125,-3.53125 z M 253.1875,986.0625 c -4.06513,7.33049 -7.93106,14.7574 -14,20.6875 3.45475,-7.87939 8.80986,-14.65723 14.25,-21.1875 z"
       style="color:#000000;font-style:normal;font-variant:normal;font-weight:normal;font-stretch:normal;font-size:medium;line-height:normal;font-family:Sans;-inkscape-font-specification:Sans;text-indent:0;text-align:start;text-decoration:none;text-decoration-line:none;letter-spacing:normal;word-spacing:normal;text-transform:none;direction:ltr;block-progression:tb;writing-mode:lr-tb;baseline-shift:baseline;text-anchor:start;display:inline;overflow:visible;visibility:visible;fill:#ffffff;fill-opacity:1;stroke:none;stroke-width:4;marker:none;enable-background:accumulate" />
  </g>
</svg>
