<?xml version="1.0" encoding="UTF-8" standalone="no"?>
<!-- Created with Inkscape (http://www.inkscape.org/) -->

<svg
   xmlns:dc="http://purl.org/dc/elements/1.1/"
   xmlns:cc="http://creativecommons.org/ns#"
   xmlns:rdf="http://www.w3.org/1999/02/22-rdf-syntax-ns#"
   xmlns:svg="http://www.w3.org/2000/svg"
   xmlns="http://www.w3.org/2000/svg"
   xmlns:sodipodi="http://sodipodi.sourceforge.net/DTD/sodipodi-0.dtd"
   xmlns:inkscape="http://www.inkscape.org/namespaces/inkscape"
   id="svg3052"
   version="1.1"
   inkscape:version="0.91 r13725"
   width="800"
   height="398"
   sodipodi:docname="KraftyNook_SuperMarioBros_Title~.svg">
  <metadata
     id="metadata3058">
    <rdf:RDF>
      <cc:Work
         rdf:about="">
        <dc:format>image/svg+xml</dc:format>
        <dc:type
           rdf:resource="http://purl.org/dc/dcmitype/StillImage" />
        <dc:title></dc:title>
      </cc:Work>
    </rdf:RDF>
  </metadata>
  <defs
     id="defs3056" />
  <sodipodi:namedview
     pagecolor="#ffffff"
     bordercolor="#666666"
     borderopacity="1"
     objecttolerance="10"
     gridtolerance="10"
     guidetolerance="10"
     inkscape:pageopacity="0"
     inkscape:pageshadow="2"
     inkscape:window-width="1280"
     inkscape:window-height="715"
     id="namedview3054"
     showgrid="false"
     inkscape:zoom="0.47048807"
     inkscape:cx="459.91476"
     inkscape:cy="199"
     inkscape:window-x="0"
     inkscape:window-y="0"
     inkscape:window-maximized="1"
     inkscape:current-layer="svg3052" />
  <g
     id="g9289">
    <path
       id="path3098"
       d="m 178.78548,375.47 c -0.24892,-0.4125 -1.18851,-13.575 -2.08799,-29.25 -1.8376,-32.02332 -2.34517,-37.26161 -3.53898,-36.52379 -0.68266,0.42191 -6.50311,7.493 -21.78917,26.47105 -1.11099,1.37933 -1.46402,1.30135 -3.16112,-0.69829 -1.05075,-1.23806 -5.38332,-8.58269 -9.62793,-16.32139 -4.24462,-7.73871 -8.04938,-13.70075 -8.45504,-13.24898 -0.40566,0.45177 -5.16414,15.32081 -10.57439,33.04231 -5.41026,17.72149 -10.36519,32.42365 -11.01096,32.67146 -0.64577,0.2478 -18.216922,-6.85968 -39.047007,-15.7944 L 31.620011,339.57302 31.337941,327.23559 31.05587,314.89816 63.681211,238.63028 c 17.943938,-41.94734 33.145869,-76.46647 33.782071,-76.70919 0.636201,-0.24271 9.393948,0.67553 19.461658,2.04054 10.06771,1.36502 18.58298,2.2038 18.92281,1.86396 0.33984,-0.33984 -1.37238,-2.29666 -3.80492,-4.34849 -10.44812,-8.81288 -9.92282,-7.7255 -9.92282,-20.54063 0,-12.80262 -0.70065,-11.04317 10.33693,-25.95781 l 5.72898,-7.74134 -5.53295,-3.53939 -5.53296,-3.53939 0,-12.485538 0,-12.48553 15.12416,-22.73374 c 8.31829,-12.503554 15.48931,-23.13226 15.93561,-23.619345 0.77085,-0.841298 13.12504,-2.225711 40.94024,-4.587774 6.875,-0.583824 13.72872,-1.265643 15.23048,-1.515153 2.25248,-0.374238 5.15417,1.379404 16.57552,10.017441 7.61477,5.759103 14.14855,10.471096 14.51952,10.471096 0.37096,0 0.67448,-1.3125 0.67448,-2.916667 0,-1.604166 0.48492,-3.078306 1.07759,-3.275865 2.02989,-0.676627 64.42071,5.441889 65.67241,6.440333 0.72142,0.575459 1.25,3.271046 1.25,6.374644 0,2.95766 0.40185,5.37756 0.893,5.37756 0.49115,0 9.15365,1.1233 19.25,2.49622 25.17389,3.42319 22.857,3.86654 22.857,-4.37378 0,-4.308679 0.46689,-7.246425 1.25,-7.865115 0.6875,-0.543158 6.425,-1.917849 12.75,-3.054869 6.325,-1.13702 21.625,-3.950023 34,-6.251117 12.375,-2.301094 23.625,-4.203802 25,-4.22824 1.375,-0.02444 10.2901,4.140263 19.81134,9.25489 9.69481,5.207866 17.66548,8.908336 18.11624,8.410664 0.44269,-0.488762 1.60699,-3.926584 2.58733,-7.639604 0.98034,-3.71302 2.30355,-7.183428 2.94046,-7.712017 0.76106,-0.631618 13.47934,1.211528 37.10133,5.376759 19.76881,3.485806 36.2808,6.142157 36.6933,5.903 0.4125,-0.239156 0.75,-1.709489 0.75,-3.267405 0,-2.111647 0.57265,-2.9693 2.25,-3.369779 1.2375,-0.295462 17.92641,-2.910333 37.08646,-5.810825 l 34.83645,-5.273622 4.16355,2.21747 c 2.28995,1.219608 13.83854,7.96495 25.66354,14.989647 l 21.5,12.772183 0.32059,7.96277 c 0.23946,5.9478 -0.89025,15.39408 -4.46442,37.329958 l -4.78501,29.36719 2.96442,2.52904 c 1.63043,1.39097 5.21442,4.45714 7.96442,6.81371 l 5,4.28468 0.33382,11.47822 c 0.19704,6.7753 -0.0961,12.28159 -0.71554,13.43897 -0.57715,1.07841 -3.56671,2.98246 -6.64347,4.23122 -3.07676,1.24877 -5.22976,2.59769 -4.78446,2.99762 0.44531,0.39992 9.58465,1.74748 20.30965,2.99457 10.725,1.2471 20.45377,2.62326 21.61949,3.05815 1.18185,0.4409 10.51066,12.65741 21.08752,27.61507 29.41217,41.59436 26.29299,36.07816 26.29299,46.49852 0,7.96049 -1.00614,12.94966 -9.10273,45.13779 -5.0065,19.90343 -9.62524,37.47255 -10.26387,39.04248 -1.02472,2.51908 -5.1393,4.66309 -35.02373,18.25 -18.62443,8.46757 -35.04319,15.40033 -36.48613,15.40614 -3.4486,0.0139 -71.13971,-21.89795 -73.26143,-23.71496 -0.90084,-0.77146 -3.7846,-7.56607 -6.40836,-15.09913 -4.96946,-14.26781 -5.18876,-14.79505 -5.87002,-14.11314 -0.22895,0.22917 -2.01662,9.60685 -3.97261,20.83928 -1.95599,11.23244 -3.97945,20.84572 -4.49657,21.36284 -0.82026,0.82026 -48.19972,4.62867 -58.36455,4.69141 l -3.75,0.0231 0,-8.5 c 0,-5.84775 -0.36692,-8.5 -1.17592,-8.5 -0.64676,0 -10.77372,4.275 -22.50436,9.5 -11.73065,5.225 -21.77458,9.5 -22.31985,9.5 -0.54528,0 -4.88838,-5.85 -9.65134,-13 -4.76296,-7.15 -9.03986,-13 -9.50423,-13 -0.46436,0 -0.8443,4.02961 -0.8443,8.95469 l 0,8.95468 -3.25,0.54063 c -1.7875,0.29735 -15.81265,1.66047 -31.167,3.02916 -30.08605,2.68189 -30.583,2.64058 -30.583,-2.54259 0,-1.55019 -0.3375,-3.02055 -0.75,-3.26746 -0.4125,-0.2469 -11.1,1.53149 -23.75,3.95198 -12.65,2.4205 -24.3206,4.28345 -25.93466,4.13991 l -2.93466,-0.261 -3.59319,-17.42595 c -2.36557,-11.47233 -4.06885,-17.5845 -4.98543,-17.89003 -2.1344,-0.71147 -20.99441,1.91368 -21.6764,3.01717 -0.3307,0.53508 -1.6765,7.34621 -2.99067,15.13584 -3.17999,18.8491 -3.12751,18.66297 -5.26152,18.66297 -1.01114,0 -11.36057,-1.78945 -22.99873,-3.97656 l -21.16029,-3.97656 -31.38824,6.47656 c -33.51067,6.9145 -33.2232,6.86595 -33.91075,5.72656 z"
       style="fill:#000000" />
    <path
       id="path3096"
       d="M 628.40625 185.9375 L 612.625 205.84375 C 603.94689 216.7805 596.45524 226.22141 595.96875 226.84375 C 595.48226 227.46608 593.0545 239.39381 590.59375 253.34375 L 586.125 278.71875 L 593.6875 300.71875 C 597.8545 312.82146 601.85944 323.30484 602.5625 324.03125 C 604.04919 325.56731 662.46538 344.98253 666.03125 345.125 C 667.35023 345.1777 677.92523 340.86783 689.53125 335.5625 C 701.13727 330.25717 714.71765 324.0355 719.71875 321.71875 L 728.8125 317.5 L 737.09375 284.375 L 745.34375 251.25 L 738.09375 241 C 734.10339 235.35101 725.22867 222.76212 718.375 213.03125 C 708.68724 199.2765 705.3415 195.21071 703.28125 194.78125 C 699.52217 193.99767 644.52624 187.30701 635.71875 186.5625 L 628.40625 185.9375 z M 652.125 238.90625 C 654.43264 238.78287 682.82136 245.57041 683.71875 246.5 C 683.8424 246.6281 684.80524 253.46875 685.875 261.71875 C 687.29905 272.70108 687.52676 277.05047 686.71875 277.9375 C 685.8465 278.89505 659.75861 292.26079 658.84375 292.21875 C 658.71564 292.21275 653.5625 286.83206 647.375 280.28125 C 641.1875 273.73045 636.125 267.77558 636.125 267.03125 C 636.125 265.77413 650.32374 240.64344 652 238.9375 C 652.01841 238.91876 652.05056 238.91023 652.125 238.90625 z "
       style="fill:#008000" />
    <path
       id="path3092"
       d="m 213.76755,338.69818 c 34.42685,-7.12376 36.28013,-7.55212 36.88111,-8.52452 0.31225,-0.50524 -3.72497,-22.189 -8.9716,-48.18614 -20.62152,-102.17989 -19.02386,-94.76278 -20.41403,-94.7716 -0.35365,-0.002 -8.5142,-1.14875 -18.13455,-2.54779 -9.62034,-1.39903 -18.39534,-2.30967 -19.5,-2.02362 -1.42292,0.36846 -5.21538,6.76041 -13.00846,21.92491 -6.05001,11.77265 -11.45001,21.44155 -12.00001,21.48644 -0.55,0.0449 -4.42818,-10.01974 -8.61819,-22.36584 -4.19,-12.34609 -8.12869,-23.06256 -8.75264,-23.81437 -0.62394,-0.75182 -3.94576,-1.64687 -7.38181,-1.98902 -3.43605,-0.34215 -11.12052,-1.2793 -17.07661,-2.08256 -5.95608,-0.80327 -11.35608,-1.25239 -12,-0.99806 -1.18688,0.46879 -6.162709,11.63635 -22.685285,50.91399 -4.242497,10.08531 -22.336591,52.35845 -24.397605,57 -7.093055,15.97407 -11.673436,27.84565 -11.408654,29.56933 0.25861,1.6835 4.197698,3.73014 20.320795,10.5581 11,4.65839 21.35,9.07112 23,9.80609 5.873491,2.61624 10.268687,3.86922 11.676879,3.32885 0.7972,-0.30592 3.10286,-6.01091 5.21566,-12.90534 2.08276,-6.79636 5.30328,-17.30703 7.15673,-23.35703 6.588,-21.50442 12.59167,-41.02027 13.04142,-42.39313 0.25101,-0.76622 0.61639,-1.21622 0.81196,-1 0.46894,0.51848 16.45739,28.88533 20.93503,37.14313 1.11835,2.0625 2.5277,3.75 3.13189,3.75 0.60419,0 8.02629,-8.55866 16.49357,-19.01925 10.53168,-13.01098 15.64954,-18.61829 16.20064,-17.75 0.44308,0.69809 0.8125,4.34181 0.82092,8.09716 0.008,3.75535 0.43929,12.08035 0.95749,18.5 0.5182,6.41965 1.48334,21.12209 2.14476,32.67209 1.02059,17.82212 1.85005,23.5 3.43304,23.5 0.1513,0 10.1087,-2.03482 22.12755,-4.52182 z"
       style="fill:#d40000" />
    <path
       id="path3090"
       d="M 273.40625 182.5625 C 271.76773 182.62717 271.06525 182.88696 270.6875 183.28125 C 269.92483 184.07733 264.57989 201.14375 258.78125 221.21875 L 248.21875 257.71875 L 256.03125 296.5 C 260.32446 317.82678 264.10326 335.54077 264.4375 335.875 C 264.96714 336.40464 275.50317 338.76253 278.8125 339.09375 C 279.46754 339.15935 280.22026 338.85887 280.5 338.40625 C 280.77973 337.95363 282.15163 330.92219 283.53125 322.78125 C 284.91087 314.64031 286.1519 307.85456 286.3125 307.71875 C 286.62024 307.45852 323.24849 302.13732 326.53125 301.875 C 328.21977 301.74008 328.85944 303.70858 332.03125 318.90625 C 334.0057 328.36681 336.16576 336.66576 336.8125 337.3125 C 337.98182 338.48182 342.89023 337.71358 376.46875 331.15625 C 381.89068 330.09743 386.50318 329.21875 386.71875 329.21875 C 387.96265 329.21875 386.40974 323.55852 380.53125 306.65625 C 376.91117 296.2475 370.2282 276.91875 365.65625 263.71875 C 361.0843 250.51875 353.92642 230.0099 349.78125 218.15625 C 345.63609 206.3026 341.95601 195.44337 341.59375 194 C 340.32284 188.93631 339.33963 188.67835 304.84375 185.15625 C 285.20627 183.15122 277.011 182.42023 273.40625 182.5625 z M 299.6875 227.71875 L 306.125 228.03125 C 309.67199 228.20108 312.72847 228.50972 312.9375 228.71875 C 313.46236 229.24361 321.05378 265.30353 321.09375 267.46875 C 321.11775 268.76934 320.41879 269.15887 318.375 269 C 316.8625 268.88244 310.51782 268.64465 304.28125 268.46875 L 292.9375 268.15625 L 293.625 263.28125 C 293.99248 260.60932 295.48516 251.54084 296.96875 243.09375 L 299.6875 227.71875 z "
       style="fill:#008000" />
    <path
       id="path3086"
       d="M 455.375 175.5 C 452.50752 175.52608 443.95826 176.62553 434.75 178.1875 C 424.22627 179.97262 412.925 181.79909 409.625 182.25 C 406.325 182.7009 399.125 183.80458 393.625 184.6875 C 388.125 185.57041 381.68983 186.57361 379.34375 186.90625 C 374.03601 187.65879 373.66494 188.83024 375.125 200.21875 C 375.72435 204.89375 376.63024 212.31875 377.125 216.71875 C 377.61975 221.11875 378.50207 228.31875 379.09375 232.71875 C 379.68543 237.11875 380.5937 244.76875 381.09375 249.71875 C 382.73093 265.92525 384.9508 283.67896 385.625 285.71875 C 385.98858 286.81875 386.68092 288.61875 387.15625 289.71875 C 387.63158 290.81875 388.71143 293.96875 389.53125 296.71875 C 390.35108 299.46875 392.64444 306.21875 394.625 311.71875 C 396.60556 317.21875 399.15224 324.64375 400.3125 328.21875 C 401.47275 331.79375 402.94996 335.29001 403.59375 336 C 404.52653 337.02871 407.32696 337.0921 417.3125 336.28125 C 424.20437 335.72162 430.60868 334.95976 431.5625 334.59375 C 433.17116 333.97645 433.23664 332.12059 432.5625 309.0625 C 432.16278 295.39065 432.07469 284.21875 432.34375 284.21875 C 432.89812 284.21875 441.1682 296.50165 455.90625 319.21875 C 465.72272 334.34978 468.65404 338.21875 470.28125 338.21875 C 470.72095 338.21875 481.31717 333.6611 493.84375 328.09375 C 506.37032 322.5264 516.97572 317.64067 517.40625 317.25 C 517.83678 316.85932 517.93314 315.89675 517.625 315.09375 C 517.31686 314.29075 507.83851 306.00956 496.5625 296.6875 C 478.86985 282.06071 476.30147 279.56759 477.71875 278.53125 C 478.62202 277.87076 484.86525 274.14638 491.625 270.25 C 498.38475 266.35362 504.1243 262.61004 504.375 261.9375 C 504.6257 261.26496 507.00003 249.40605 509.65625 235.5625 C 513.44842 215.79867 514.24452 210.06053 513.3125 208.9375 C 512.65966 208.15088 504.13848 202.87255 494.375 197.1875 C 484.61151 191.50246 472.575 184.43671 467.625 181.5 C 462.675 178.56329 457.55127 175.8987 456.25 175.5625 C 456.08734 175.52047 455.78464 175.49627 455.375 175.5 z M 430.625 216.21875 C 432.61052 216.21875 460.52749 223.74281 461.8125 224.625 C 461.99255 224.74861 460.69648 237.01175 459.3125 248.21875 L 458.625 253.71875 L 453.625 254.96875 C 450.875 255.66375 445.32817 256.93568 441.3125 257.78125 C 437.29683 258.62682 433.40498 259.55643 432.65625 259.84375 C 431.62791 260.23836 431.16447 258.80793 430.75 254.03125 C 430.44823 250.55336 429.95975 240.63125 429.65625 231.96875 C 429.17564 218.25155 429.29123 216.21875 430.625 216.21875 z "
       style="fill:#ffd42a" />
    <path
       id="path3082"
       d="m 548.3496,337.11606 c 8.39873,-0.60716 15.43998,-1.26422 15.64721,-1.46012 0.50173,-0.4743 5.45911,-27.45221 12.57556,-68.43594 1.8623,-10.725 5.50485,-31.35144 8.09457,-45.83654 5.28534,-29.56257 5.38456,-28.40115 -2.57055,-30.0891 -6.73354,-1.42875 -21.02165,-4.77266 -34.61722,-8.10161 -6.67747,-1.63501 -13.2819,-2.97275 -14.67653,-2.97275 -3.03539,0 -2.69369,-4.07371 -5.03268,60 -0.87337,23.925 -1.89123,48.05276 -2.26192,53.61724 l -0.67396,10.11723 4.14297,4.4946 c 3.39838,3.68681 4.14297,5.20396 4.14297,8.44163 0,4.36598 -0.99999,5.99492 -5.61456,9.14589 -2.18551,1.49233 -3.28814,3.19638 -3.69648,5.71273 -1.17892,7.2648 -1.31199,7.23569 24.54062,5.36674 z"
       style="fill:#00ccff" />
    <path
       id="path3080"
       d="M 429.03125 42.21875 C 424.2242 42.2022 370.58292 52.50922 369.84375 53.59375 C 368.60307 55.41409 369.50313 61.45597 371.125 62.25 C 371.95 62.65391 373.975 63.40585 375.625 63.90625 C 379.13456 64.97059 379.12097 64.49986 376.25 80.21875 C 375.09477 86.54375 374.1307 94.20949 374.125 97.25 C 374.116 102.14745 375.97442 118.53071 379.09375 141.21875 C 379.66089 145.34375 380.39915 151.64375 380.75 155.21875 C 381.55161 163.38701 382.52232 165.37442 385.40625 164.78125 C 386.62174 164.53124 393.5875 163.79444 400.875 163.125 C 408.82136 162.39504 414.17341 161.46458 414.25 160.8125 C 414.3203 160.21449 414.43275 153.64375 414.5 146.21875 L 414.625 132.71875 L 425.125 132.09375 C 430.9 131.74864 437.10228 131.41114 438.90625 131.34375 C 441.59418 131.24333 444.17895 129.39359 453.21875 121.09375 C 459.28567 115.52344 464.86964 110.01094 465.625 108.84375 C 466.92408 106.83639 468.74998 96.42848 471.53125 75.4375 C 472.41373 68.77713 472.45965 65.75344 471.6875 64.8125 C 470.67665 63.58067 467.55963 61.75646 454.125 54.5 C 451.1 52.86611 444.76203 49.431963 440.03125 46.875 C 435.30046 44.318036 430.35046 42.223292 429.03125 42.21875 z M 410.28125 71.21875 C 410.50851 71.21875 416.30051 73.18139 423.15625 75.59375 C 434.28647 79.51019 435.66534 80.27357 435.9375 82.5 C 436.23041 84.89619 433.56232 102.09393 432.78125 102.875 C 432.30487 103.35138 416.18857 106.2169 413.96875 106.21875 C 412.90036 106.21964 412.14418 105.08765 411.78125 102.96875 C 411.04628 98.677642 409.75023 71.21875 410.28125 71.21875 z "
       style="fill:#d40000" />
    <path
       id="path3076"
       d="M 620.71875 37.9375 L 612.6875 39.15625 C 608.25699 39.831814 602.15 40.766642 599.125 41.25 C 596.1 41.733357 589.125 42.828545 583.625 43.6875 C 578.125 44.546455 571.26327 45.779376 568.375 46.40625 L 563.125 47.53125 L 566.125 49.375 C 568.38325 50.748327 569.04195 51.78488 568.71875 53.46875 C 567.94001 57.52602 566.27112 66.61059 565.25 72.21875 C 563.39143 82.42628 563.0269 91.672052 564.125 101.21875 C 565.57736 113.84532 567.92794 136.23135 569.15625 149.21875 C 569.70243 154.99375 570.43292 161.01126 570.78125 162.59375 L 571.40625 165.46875 L 582.5 164.75 C 588.61001 164.34842 595.65 163.70447 598.125 163.34375 L 602.625 162.6875 L 602.375 143.40625 C 602.23763 132.79119 602.48139 124.33116 602.90625 124.59375 C 603.33113 124.85635 609.29377 133.87122 616.15625 144.625 C 623.01873 155.37878 629.24868 164.40853 630.03125 164.71875 C 631.49432 165.29873 665.10232 151.50981 666.28125 149.84375 C 667.51748 148.09672 665.9909 146.486 651.0625 133.75 C 642.84299 126.73761 636.125 120.84983 636.125 120.6875 C 636.125 120.52517 640.13696 117.86944 645.03125 114.78125 C 649.92555 111.69305 654.439 108.53893 655.09375 107.75 C 655.7485 106.96108 657.84778 96.75739 659.75 85.09375 C 662.58063 67.73751 662.96838 63.65912 661.90625 62.625 C 661.19248 61.93006 651.65699 56.101439 640.6875 49.65625 L 620.71875 37.9375 z M 601.09375 68.96875 C 602.87094 69.028814 615.86263 73.349153 624.375 76.75 C 625.59956 77.23923 626.10774 78.5133 626.09375 81.0625 C 626.06975 85.42611 623.63062 101.05688 622.84375 101.84375 C 621.99382 102.69369 615.35755 103.98546 607.9375 104.75 L 601.25 105.4375 L 600.9375 87.59375 C 600.76213 77.77105 600.74876 69.38957 600.90625 69 C 600.92052 68.964714 600.97527 68.964746 601.09375 68.96875 z "
       style="fill:#ffd42a" />
    <path
       id="path3072"
       d="m 335.32482,161.97 c 2.21979,-1.74835 18.403,-20.20219 20.14441,-22.97082 0.78845,-1.25355 3.78239,-16.38814 6.6532,-33.63244 4.3888,-26.362538 5.00301,-31.558728 3.85862,-32.644078 -0.74857,-0.70996 -5.41103,-1.76984 -10.36103,-2.35529 -4.95,-0.58545 -14.35294,-1.78267 -20.89543,-2.66049 -6.54248,-0.87782 -12.2698,-1.22165 -12.72738,-0.76407 -0.8964,0.89639 0.60549,54.631138 1.57059,56.192688 0.87497,1.41573 -1.71884,1.85784 -15.94778,2.71829 -17.88104,1.0813 -17.03883,1.13941 -16.7589,-1.15641 0.13261,-1.08756 2.72011,-17.35588 5.75,-36.151828 3.0299,-18.79595 5.5089,-34.62812 5.5089,-35.18261 0,-1.58665 -2.47135,-2.03834 -20.03195,-3.661257 -9.05743,-0.837072 -18.60555,-1.796414 -21.21805,-2.131871 -4.48334,-0.575681 -4.75,-0.478979 -4.75,1.722523 0,1.282845 1.40625,3.783325 3.125,5.556625 4.19228,4.32533 3.99535,7.23235 -0.92241,13.61664 -4.82502,6.26389 -4.91662,6.6409 -5.66866,23.33209 l -0.58924,13.077698 3.02766,3.80981 c 1.66521,2.0954 3.02765,4.44762 3.02765,5.22717 0,1.29623 -2.14672,6.57035 -5.51425,13.54756 -0.72733,1.50697 -1.61972,4.09354 -1.98309,5.74794 -0.75069,3.4179 0.43961,4.80406 15.49236,18.04155 4.67225,4.10882 9.0919,8.03308 9.82142,8.72058 0.72953,0.6875 3.20677,1.30807 5.50499,1.37904 2.29821,0.071 14.30357,0.43857 26.67857,0.81689 12.375,0.37831 23.20149,0.77025 24.05887,0.87096 0.85738,0.10071 2.27305,-0.37939 3.14593,-1.06689 z"
       style="fill:#ffd42a" />
    <path
       id="path3070"
       d="m 556.13314,162.47 c 0.0645,-3.68314 -4.52021,-30.02688 -5.3877,-30.95807 -0.87619,-0.94055 -5.63427,-0.54052 -21.48573,1.80635 -11.19817,1.65794 -20.59446,2.78029 -20.88063,2.49411 -0.59828,-0.59828 -3.26114,-17.92365 -2.82227,-18.36252 0.15972,-0.15971 7.84393,0.85608 17.07603,2.25731 9.2321,1.40123 16.98748,2.34585 17.23418,2.09915 0.66204,-0.66204 3.67782,-24.494848 3.16451,-25.008158 -0.241,-0.241 -8.19468,-0.76081 -17.67485,-1.15513 -10.79863,-0.44916 -17.23666,-1.10512 -17.23666,-1.75621 0,-1.0262 4.02537,-15.95101 4.42251,-16.3973 0.1735,-0.19496 13.90281,3.85643 31.57749,9.31823 8.75427,2.70523 8.42725,3.06147 10.86702,-11.83776 1.19334,-7.2875 2.16144,-14.18837 2.15134,-15.33525 -0.0169,-1.91943 -1.46969,-2.33796 -18.26836,-5.26299 -10.0375,-1.74775 -27.025,-4.715082 -37.75,-6.594073 -14.89102,-2.608865 -19.75679,-3.137602 -20.58646,-2.237019 -0.59755,0.64863 -1.654,3.178227 -2.34767,5.621332 -1.14166,4.02095 -1.08607,4.56275 0.58646,5.71589 4.04248,2.78713 4.52275,3.59613 3.98592,6.71411 -0.2962,1.7204 -1.99573,13.253 -3.77673,25.628 l -3.23818,22.499998 -6.31167,6.58006 c -4.24614,4.4267 -6.30396,7.372 -6.28812,9 0.0364,3.7438 4.79012,32.0664 5.5024,32.78346 1.40069,1.41007 87.46318,3.75769 87.48717,2.38648 z"
       style="fill:#008000" />
    <path
       id="path3068"
       d="m 225.62002,160.68943 c 1.52885,-0.30985 4.17907,-5.35699 11.25,-21.42475 5.0875,-11.56068 9.24491,-22.0376 9.2387,-23.28205 -0.009,-1.8546 -5.05861,-5.57566 -28,-20.634308 -15.39379,-10.10443 -27.97925,-18.87943 -27.9677,-19.5 0.0315,-1.69343 7.88428,-13.62832 8.96699,-13.62832 0.51671,0 4.89329,2.74717 9.72574,6.10483 4.83245,3.35766 11.11898,7.62743 13.97007,9.48838 2.8511,1.86096 5.46515,3.83878 5.80902,4.39517 0.34387,0.55639 1.84528,1.01162 3.33648,1.01162 2.25376,0 4.01561,-1.691 10.44099,-10.02114 4.25134,-5.51163 7.72971,-10.80117 7.72971,-11.75453 0,-1.07258 -6.7182,-6.83626 -17.62254,-15.118751 l -17.62254,-13.385353 -8.12746,0.615253 c -33.80226,2.558851 -43.22151,4.034545 -44.81427,7.020965 -0.62878,1.178953 -6.036,9.538986 -12.01605,18.577846 -5.98005,9.03887 -10.74028,17.12247 -10.5783,17.96356 0.26603,1.38143 8.27628,6.52654 46.72892,30.014748 6.67435,4.07692 12.2927,7.67692 12.48523,8 0.49658,0.83332 -10.42238,15.0874 -11.55731,15.0874 -0.51605,0 -7.60742,-5.625 -15.75859,-12.5 -8.15119,-6.875 -15.71286,-12.5 -16.80373,-12.5 -1.32574,0 -4.27628,3.01633 -8.89838,9.0968 -11.23623,14.78147 -11.81028,15.72417 -10.81076,17.75312 0.83801,1.7011 15.50044,14.70203 28.7192,25.46483 l 5.82344,4.74148 27.17657,-0.59073 c 14.94711,-0.3249 28.07657,-0.77313 29.17657,-0.99607 z"
       style="fill:#00ccff" />
  </g>
  <g
     transform="translate(30.706818,-493.17837)"
     id="layer1"
     inkscape:label="Layer 1"
     style="fill:#ffffff">
    <path
       sodipodi:nodetypes="cccccccccccccccccccccccccccccccccccccccccccccccccccccccccccccccccccccccccccccccccccccccccccccccccccccccccccccccccccccccccccccccccccccccccccccccccccccccccccc"
       inkscape:connector-curvature="0"
       id="path3014"
       d="m 307.1875,905.71875 c -14.71172,3.2326 -22.31955,18.30825 -29,30.40625 -4.49318,7.45262 -6.22013,17.19447 -14.625,21.25 -17.76798,12.53713 -38.12863,22.31396 -59.3125,27.46875 -0.3142,-4.64999 6.61897,-9.94743 2.8125,-14.34375 -4.61504,-3.16743 -8.625,3.63785 -12.08529,5.76466 -4.75886,3.82132 -11.03967,10.61276 -17.60221,7.95409 -1.45825,-3.41545 3.35251,-6.22842 4.96875,-8.75 6.89968,-7.22275 16.12499,-11.73841 25.71875,-14.0625 3.45541,-2.64846 -0.33029,-8.46633 -4.34375,-6.28125 -25.81695,3.40362 -48.32781,18.63648 -72.625,26.9375 -2.26497,-1.0872 -0.0214,-5.3822 0.3125,-7.3125 0.69983,-4.83164 5.53748,-9.1608 4.46875,-14.0625 -3.21407,-5.06602 -8.56513,0.90827 -12.25,2.15625 -3.12208,1.37389 -6.62086,2.61142 -10.0625,1.875 4.70771,-1.97528 6.88597,-9.9423 1.125,-11.9375 -6.01239,-2.32388 -13.33293,3.59621 -11.71875,10 -14.010472,8.59332 -28.639706,19.44401 -45.65625,19.84375 -3.977455,-0.2357 -9.543485,-3.35825 -10.75,-5.78125 10.041957,-1.90604 22.179135,-5.00562 27.21875,-14.65625 2.262241,-5.309 -4.47016,-8.56583 -8.90625,-7.375 -8.691717,1.27006 -17.056005,5.16909 -24.21875,10.21875 4.806918,-8.62423 8.067377,-18.4849 16.618819,-24.18222 6.854974,-7.48036 16.669092,-12.99465 21.099931,-22.19278 1.624579,-3.59966 0.229384,-9.53363 -4.6875,-8.65625 -13.149714,2.38383 -19.00283,16.15481 -25.720468,26.14628 -5.128464,10.90567 -16.46923,16.78085 -25.531196,24.10028 -6.453101,5.05244 -14.2669788,8.3473 -20.842086,12.97219 -2.55369492,3.45819 2.527214,7.43068 5.5432678,4.69451 C 17.099482,972.73738 26.522343,966.52557 35.3125,959.625 c -4.139619,8.90878 -9.77205,17.12347 -14.78125,25.34375 -0.902765,4.72442 6.033614,5.59731 7.647675,1.53819 3.313282,-1.50474 6.918628,-11.09571 10.172939,-6.97828 6.622204,7.95413 17.740297,13.23821 27.987462,8.98787 14.523745,-3.9432 27.587521,-12.09399 40.379424,-19.51653 5.38263,4.27985 13.55118,2.55565 18.9375,0.78125 -1.63961,5.42026 -5.57267,13.99062 0.125,18.25 8.03523,3.02658 16.46537,-2.8487 23.90625,-5.40625 9.44559,-4.22777 18.6742,-9.05396 28.3125,-12.75 -5.06354,4.26202 -11.68828,12.72609 -5.90625,19.09375 6.41129,6.45541 16.30824,1.32417 22.3125,-3.125 2.86844,-2.86561 2.3499,-0.93577 2.625,1.78125 1.55762,6.42871 10.26403,4.35012 14.75,2.875 18.181,-5.68964 35.68488,-13.61512 51.40625,-24.1875 -3.09137,4.68634 -9.28262,6.85923 -12.84375,11.53125 -9.49825,10.26876 -17.39725,22.45595 -22.03125,35.59375 -1.55256,4.143 3.01827,8.5437 6.84375,5.5 14.08991,-8.5066 21.61969,-24.14295 28.90625,-38.3125 6.12784,8.37994 18.00317,4.00086 25.48818,0.0528 6.54492,-3.31279 13.42004,-7.93069 19.07432,-11.58404 -2.73396,5.77843 -9.05798,13.70543 -4.40625,19.96875 6.59085,4.87066 15.37199,-0.386 21.90625,-2.84375 14.65417,-6.06584 30.86286,-12.91659 44.4375,-19.21875 -2.47395,6.7757 -9.52748,14.05773 -6.40625,21.6875 4.04945,5.50959 12.09614,1.29037 16.6875,-1.4375 3.22197,-1.83266 6.30211,-3.85806 9.28125,-6.03125 -11.26251,22.08054 -23.40224,43.88534 -34.15625,66.12504 -0.42962,4.5933 6.93936,5.0525 7.4375,0.4687 18.20659,-34.6902 46.69445,-65.69557 83.46875,-80.46874 -2.13196,4.89827 -6.4945,9.57251 -6.71875,15 0.92885,4.27254 6.08451,2.99085 8.46875,0.75 12.46683,-6.41835 24.09662,-14.58749 36.90625,-20.03125 3.79065,-0.22644 -0.4504,4.1045 -1.6875,4.875 -4.66637,5.09457 -11.93334,9.64567 -12.90625,16.90625 0.29815,6.46911 8.91037,5.16179 13.0625,3.875 14.87586,-4.41255 29.286,-12.8292 43.125,-18.21875 -4.73844,4.60775 -10.95448,13.33586 -5.5625,19.53125 6.5432,4.49225 15.48917,1.10289 21.96875,-1.9375 4.07073,-1.64561 7.51574,-6.11909 10.59375,-7.84375 11.21459,6.73753 25.03522,1.91412 34.96875,-4.9375 3.3901,-2.00278 7.21329,-4.41192 10.46875,-5.90625 -5.58554,4.91117 -10.65751,15.68604 -3.53125,21.375 7.61339,3.73906 16.78005,-0.96777 23.40625,-5 3.24806,-1.2653 5.36119,-7.06454 9,-4.125 16.42108,5.23772 32.7501,-4.80599 45.02436,-14.84232 4.13191,-3.182 8.29346,-6.35169 12.22564,-9.81393 -5.31916,10.26858 -11.98388,19.90958 -17.03125,30.125 -0.49864,4.09834 5.59569,5.53495 7.0625,1.5625 2.64026,-4.09774 5.67399,-8.46014 9.34375,-11.3125 6.02954,8.65389 16.67474,15.7423 27.59375,12.21875 9.74307,-3.03334 18.52872,-9.03529 27.5,-13.75 3.03709,-3.21437 -1.87192,-7.93085 -5.14998,-5.15782 -10.47537,4.04906 -19.82916,13.90285 -31.66252,12.25157 -4.52303,-1.08295 -7.92613,-4.49532 -10.90625,-7.875 10.54297,0.9282 25.01422,-1.47982 28.09375,-13.25 1.64375,-5.33733 -4.15031,-9.00596 -8.90625,-7.34375 -8.09207,1.79359 -15.53825,6.07461 -22.28125,10.5625 6.46033,-10.0854 10.72311,-22.02292 20.76517,-29.19847 5.39939,-6.31867 14.53688,-10.60261 16.73483,-19.05153 1.34402,-5.33373 -5.26935,-7.1783 -9,-5.03125 -13.99117,6.08419 -15.58213,24.59105 -27.9645,32.73393 -11.22813,9.7133 -23.10104,18.94227 -35.69175,26.64107 -7.06027,3.19202 -15.67731,6.57511 -23.34375,3.71875 4.61718,-4.07491 5.04961,-14.59461 -2.65625,-15.15625 -1.65521,0.0963 -1.70426,-3.97896 -4.5,-3.5 -17.32807,-1.16302 -31.86976,9.46786 -46.15625,17.375 -5.75944,3.13473 -14.28972,4.19517 -19.5625,0.40625 2.58714,-4.27564 4.60926,-12.7884 -1.71875,-14.71875 -2.1181,0.17588 -2.70945,-0.71527 -3.90625,-2.25 -4.5378,-1.78758 -9.71491,1.45843 -14.36936,1.98785 -19.95433,5.19458 -37.49654,16.70318 -56.94314,23.13715 -3.10773,0.2978 5.08662,-5.45088 5.83601,-7.23343 4.00473,-4.01439 10.27987,-11.11952 5.66399,-16.82907 -5.94814,-4.4387 -13.57815,0.87543 -19.375,3.21875 -7.09549,3.53962 -13.97279,7.47982 -20.84375,11.4375 3.43684,-3.71196 6.33395,-12.64463 -0.9375,-13.65625 -9.25883,0.56619 -17.66616,6.18686 -25.71875,10.4375 -13.40765,8.20068 -25.72044,18.23984 -36.71875,29.4375 5.00475,-10.40073 11.39111,-20.42751 15.75,-31 -0.1361,-4.61402 -6.69569,-4.37374 -8.5,-0.75 -7.7552,6.35493 -15.92691,13.37473 -25.25,16.84375 2.35111,-9.9311 8.98736,-18.09989 14.6875,-26.1875 0.87541,-4.38085 -5.28925,-5.86264 -7.78329,-2.64076 -20.72121,10.75501 -42.01504,21.30789 -64.46671,27.60951 -4.29363,0.4375 -0.56402,-5.5534 -0.0312,-7.40625 4.02649,-7.4485 7.49737,-15.69554 14.21875,-21.15625 14.07466,-2.25693 28.94369,-4.0771 41.65625,-10.59375 3.22227,-2.96923 -1.57748,-8.05825 -5,-5.4375 -8.7947,3.12637 -17.9193,5.39223 -27.125,7.1875 7.91717,-7.49231 17.67132,-15.44826 19.5625,-26.75 0.40603,-5.58731 -6.88301,-6.24926 -9.9375,-2.9375 -10.26201,8.83455 -16.82263,21.12247 -24.90625,31.875 -5.39294,1.36656 -11.77239,-1.04688 -16.75,1.46875 -2.9998,3.19893 1.15784,7.81189 5,6.3125 5.248,-0.65652 5.79678,0.33344 1.3125,3.09375 -11.73649,7.42951 -23.00594,17.42722 -37,19.78125 -5.50316,0.80891 -7.70271,-7.08217 -3.90836,-10.46453 2.82449,-6.89552 6.48518,-13.10103 12.76746,-17.33951 10.53865,-10.22531 21.42681,-21.25363 28.7659,-34.10221 2.70467,-4.39887 1.89837,-11.6805 -4.8125,-10.625 z m -2.25,8.4375 c -4.78801,9.13942 -13.17939,16.15209 -19.65625,24.15625 4.76485,-9.24782 9.92958,-19.5758 19.65625,-24.15625 z m -19.65625,24.1875 c -0.0939,0.1896 -0.072,-0.0374 0,0 z m 427.625,23.34375 c -3.33484,4.57409 -9.44699,6.12331 -14.875,6.28125 4.65588,-2.74903 9.62169,-5.13891 14.875,-6.28125 z m -648.0625,0.59375 c -5.208909,4.12625 -11.763358,6.37175 -18.1875,7.34375 5.248273,-3.64473 12.589429,-6.96829 18.1875,-7.34375 z m 556.28125,2.1875 c -2.06625,3.18155 -2.356,7.55272 -0.5,10.90625 -5.66049,4.69743 -12.87332,10.38816 -20.65625,9.21875 -2.13845,-4.41087 3.80988,-8.44302 6.3125,-11.1875 4.30874,-3.77174 9.04266,-7.54355 14.84375,-8.9375 z m -74,0.625 c -1.78715,3.32412 -0.75715,7.6505 0.875,10.46875 -5.18101,5.62811 -13.3514,10.43059 -21.0625,9 0.96405,-6.98696 8.09857,-11.95726 13.40625,-15.9375 2.08156,-1.26782 4.87872,-3.05281 6.78125,-3.53125 z M 253.1875,986.0625 c -4.06513,7.33049 -7.93106,14.7574 -14,20.6875 3.45475,-7.87939 8.80986,-14.65723 14.25,-21.1875 z"
       style="color:#000000;font-style:normal;font-variant:normal;font-weight:normal;font-stretch:normal;font-size:medium;line-height:normal;font-family:Sans;-inkscape-font-specification:Sans;text-indent:0;text-align:start;text-decoration:none;text-decoration-line:none;letter-spacing:normal;word-spacing:normal;text-transform:none;direction:ltr;block-progression:tb;writing-mode:lr-tb;baseline-shift:baseline;text-anchor:start;display:inline;overflow:visible;visibility:visible;fill:#ffffff;fill-opacity:1;stroke:none;stroke-width:4;marker:none;enable-background:accumulate" />
  </g>
</svg>
